<mxfile host="Electron" agent="Mozilla/5.0 (Windows NT 10.0; Win64; x64) AppleWebKit/537.36 (KHTML, like Gecko) draw.io/26.0.16 Chrome/132.0.6834.196 Electron/34.2.0 Safari/537.36" version="26.0.16">
  <diagram name="Page-1" id="tXG55jVxtdDTSZWkihLU">
    <mxGraphModel dx="2088" dy="1442" grid="1" gridSize="10" guides="1" tooltips="1" connect="1" arrows="1" fold="1" page="1" pageScale="1" pageWidth="1100" pageHeight="850" math="0" shadow="0">
      <root>
        <mxCell id="0" />
        <mxCell id="1" parent="0" />
        <mxCell id="dOF6ThdAv8QO7OxwCsO3-43" value="" style="endArrow=none;html=1;rounded=0;entryX=-0.012;entryY=1;entryDx=0;entryDy=0;entryPerimeter=0;exitX=1.009;exitY=0.162;exitDx=0;exitDy=0;exitPerimeter=0;jumpStyle=arc;dashed=1;dashPattern=8 8;startArrow=open;startFill=0;startSize=8;fontStyle=0" parent="1" source="MVc7WZ1SkRlFC5I5kt_B-44" target="z0n3_UW_qCKlOOFNhD-T-37" edge="1">
          <mxGeometry width="50" height="50" relative="1" as="geometry">
            <mxPoint x="200" y="1250" as="sourcePoint" />
            <mxPoint x="800" y="1170" as="targetPoint" />
            <Array as="points">
              <mxPoint x="280" y="428" />
              <mxPoint x="280" y="890" />
              <mxPoint x="730" y="890" />
              <mxPoint x="730" y="1110" />
            </Array>
          </mxGeometry>
        </mxCell>
        <mxCell id="dOF6ThdAv8QO7OxwCsO3-45" value="Creates" style="edgeLabel;html=1;align=center;verticalAlign=middle;resizable=0;points=[];fontStyle=0" parent="dOF6ThdAv8QO7OxwCsO3-43" vertex="1" connectable="0">
          <mxGeometry x="0.7122" y="2" relative="1" as="geometry">
            <mxPoint x="-12" y="115" as="offset" />
          </mxGeometry>
        </mxCell>
        <mxCell id="E4u7SWDCAfa03cuSUIF7-13" value="" style="edgeStyle=none;shape=connector;rounded=0;orthogonalLoop=1;jettySize=auto;html=1;strokeColor=default;align=center;verticalAlign=middle;fontFamily=Helvetica;fontSize=11;fontColor=default;labelBackgroundColor=default;endArrow=none;startArrow=block;startFill=0;endSize=6;startSize=10;jumpStyle=none;exitX=0.5;exitY=1;exitDx=0;exitDy=0;fontStyle=0" parent="1" source="MVc7WZ1SkRlFC5I5kt_B-1" edge="1">
          <mxGeometry relative="1" as="geometry">
            <mxPoint x="78" y="190" as="targetPoint" />
            <mxPoint x="77.84" y="161" as="sourcePoint" />
          </mxGeometry>
        </mxCell>
        <mxCell id="E4u7SWDCAfa03cuSUIF7-19" style="edgeStyle=none;shape=connector;rounded=0;orthogonalLoop=1;jettySize=auto;html=1;strokeColor=default;align=center;verticalAlign=middle;fontFamily=Helvetica;fontSize=11;fontColor=default;labelBackgroundColor=default;endArrow=none;exitX=1.003;exitY=0.584;exitDx=0;exitDy=0;exitPerimeter=0;fontStyle=0" parent="1" source="MVc7WZ1SkRlFC5I5kt_B-2" edge="1">
          <mxGeometry relative="1" as="geometry">
            <mxPoint x="188" y="118" as="targetPoint" />
            <mxPoint x="158" y="120" as="sourcePoint" />
          </mxGeometry>
        </mxCell>
        <mxCell id="E4u7SWDCAfa03cuSUIF7-23" value="Is A" style="edgeLabel;html=1;align=center;verticalAlign=middle;resizable=0;points=[];fontFamily=Helvetica;fontSize=11;fontColor=default;labelBackgroundColor=default;fontStyle=0" parent="E4u7SWDCAfa03cuSUIF7-19" vertex="1" connectable="0">
          <mxGeometry x="-0.0736" y="-2" relative="1" as="geometry">
            <mxPoint y="-11" as="offset" />
          </mxGeometry>
        </mxCell>
        <mxCell id="MVc7WZ1SkRlFC5I5kt_B-1" value="User" style="swimlane;fontStyle=1;align=center;verticalAlign=top;childLayout=stackLayout;horizontal=1;startSize=26;horizontalStack=0;resizeParent=1;resizeParentMax=0;resizeLast=0;collapsible=1;marginBottom=0;whiteSpace=wrap;html=1;" parent="1" vertex="1">
          <mxGeometry x="-2" y="66" width="160" height="100" as="geometry" />
        </mxCell>
        <mxCell id="MVc7WZ1SkRlFC5I5kt_B-2" value="&lt;font style=&quot;font-size: 11px;&quot;&gt;- username: String&lt;/font&gt;&lt;div&gt;&lt;font style=&quot;font-size: 11px;&quot;&gt;- password: String&lt;/font&gt;&lt;/div&gt;&lt;div&gt;&lt;font style=&quot;font-size: 11px;&quot;&gt;- userID: Integer&lt;/font&gt;&lt;/div&gt;" style="text;strokeColor=none;fillColor=none;align=left;verticalAlign=top;spacingLeft=4;spacingRight=4;overflow=hidden;rotatable=0;points=[[0,0.5],[1,0.5]];portConstraint=eastwest;whiteSpace=wrap;html=1;fontStyle=0" parent="MVc7WZ1SkRlFC5I5kt_B-1" vertex="1">
          <mxGeometry y="26" width="160" height="44" as="geometry" />
        </mxCell>
        <mxCell id="MVc7WZ1SkRlFC5I5kt_B-3" value="" style="line;strokeWidth=1;fillColor=none;align=left;verticalAlign=middle;spacingTop=-1;spacingLeft=3;spacingRight=3;rotatable=0;labelPosition=right;points=[];portConstraint=eastwest;strokeColor=inherit;fontStyle=0" parent="MVc7WZ1SkRlFC5I5kt_B-1" vertex="1">
          <mxGeometry y="70" width="160" height="30" as="geometry" />
        </mxCell>
        <mxCell id="MVc7WZ1SkRlFC5I5kt_B-17" value="Person" style="swimlane;fontStyle=1;align=center;verticalAlign=top;childLayout=stackLayout;horizontal=1;startSize=26;horizontalStack=0;resizeParent=1;resizeParentMax=0;resizeLast=0;collapsible=1;marginBottom=0;whiteSpace=wrap;html=1;" parent="1" vertex="1">
          <mxGeometry x="220" y="-20" width="160" height="130" as="geometry" />
        </mxCell>
        <mxCell id="MVc7WZ1SkRlFC5I5kt_B-18" value="&lt;font style=&quot;font-size: 11px;&quot;&gt;# firstName: String&lt;/font&gt;&lt;div&gt;&lt;font style=&quot;font-size: 11px;&quot;&gt;# lastName: String&lt;/font&gt;&lt;/div&gt;&lt;div&gt;&lt;font style=&quot;font-size: 11px;&quot;&gt;# workPhone: String&lt;/font&gt;&lt;/div&gt;&lt;div&gt;&lt;font style=&quot;font-size: 11px;&quot;&gt;# mobilePhone: String&lt;/font&gt;&lt;/div&gt;&lt;div&gt;&lt;font style=&quot;font-size: 11px;&quot;&gt;# emailAddress: String&lt;/font&gt;&lt;/div&gt;" style="text;strokeColor=none;fillColor=none;align=left;verticalAlign=top;spacingLeft=4;spacingRight=4;overflow=hidden;rotatable=0;points=[[0,0.5],[1,0.5]];portConstraint=eastwest;whiteSpace=wrap;html=1;fontStyle=0" parent="MVc7WZ1SkRlFC5I5kt_B-17" vertex="1">
          <mxGeometry y="26" width="160" height="74" as="geometry" />
        </mxCell>
        <mxCell id="MVc7WZ1SkRlFC5I5kt_B-19" value="" style="line;strokeWidth=1;fillColor=none;align=left;verticalAlign=middle;spacingTop=-1;spacingLeft=3;spacingRight=3;rotatable=0;labelPosition=right;points=[];portConstraint=eastwest;strokeColor=inherit;fontStyle=0" parent="MVc7WZ1SkRlFC5I5kt_B-17" vertex="1">
          <mxGeometry y="100" width="160" height="30" as="geometry" />
        </mxCell>
        <mxCell id="MVc7WZ1SkRlFC5I5kt_B-20" value="CustomerContact" style="swimlane;fontStyle=1;align=center;verticalAlign=top;childLayout=stackLayout;horizontal=1;startSize=26;horizontalStack=0;resizeParent=1;resizeParentMax=0;resizeLast=0;collapsible=1;marginBottom=0;whiteSpace=wrap;html=1;" parent="1" vertex="1">
          <mxGeometry x="-2" y="-35" width="160" height="90" as="geometry" />
        </mxCell>
        <mxCell id="MVc7WZ1SkRlFC5I5kt_B-21" value="&lt;font style=&quot;font-size: 11px;&quot;&gt;- title: String&lt;/font&gt;&lt;div&gt;&lt;font style=&quot;font-size: 11px;&quot;&gt;- isSignatory: Boolean&lt;/font&gt;&lt;/div&gt;" style="text;strokeColor=none;fillColor=none;align=left;verticalAlign=top;spacingLeft=4;spacingRight=4;overflow=hidden;rotatable=0;points=[[0,0.5],[1,0.5]];portConstraint=eastwest;whiteSpace=wrap;html=1;fontStyle=0" parent="MVc7WZ1SkRlFC5I5kt_B-20" vertex="1">
          <mxGeometry y="26" width="160" height="34" as="geometry" />
        </mxCell>
        <mxCell id="MVc7WZ1SkRlFC5I5kt_B-22" value="" style="line;strokeWidth=1;fillColor=none;align=left;verticalAlign=middle;spacingTop=-1;spacingLeft=3;spacingRight=3;rotatable=0;labelPosition=right;points=[];portConstraint=eastwest;strokeColor=inherit;fontStyle=0" parent="MVc7WZ1SkRlFC5I5kt_B-20" vertex="1">
          <mxGeometry y="60" width="160" height="30" as="geometry" />
        </mxCell>
        <mxCell id="MVc7WZ1SkRlFC5I5kt_B-23" value="LoanAccountant" style="swimlane;fontStyle=1;align=center;verticalAlign=top;childLayout=stackLayout;horizontal=1;startSize=26;horizontalStack=0;resizeParent=1;resizeParentMax=0;resizeLast=0;collapsible=1;marginBottom=0;whiteSpace=wrap;html=1;" parent="1" vertex="1">
          <mxGeometry x="264" y="218" width="170" height="110" as="geometry" />
        </mxCell>
        <mxCell id="MVc7WZ1SkRlFC5I5kt_B-24" value="&lt;font style=&quot;font-size: 11px;&quot;&gt;- systemCloseAccess: Integer&lt;/font&gt;&lt;div&gt;&lt;font style=&quot;font-size: 11px;&quot;&gt;- gLAccessLevel: Integer&lt;/font&gt;&lt;/div&gt;&lt;div&gt;&lt;font style=&quot;font-size: 11px;&quot;&gt;- entryApprovalLevel: Integer&lt;/font&gt;&lt;/div&gt;" style="text;strokeColor=none;fillColor=none;align=left;verticalAlign=top;spacingLeft=4;spacingRight=4;overflow=hidden;rotatable=0;points=[[0,0.5],[1,0.5]];portConstraint=eastwest;whiteSpace=wrap;html=1;fontStyle=0" parent="MVc7WZ1SkRlFC5I5kt_B-23" vertex="1">
          <mxGeometry y="26" width="170" height="54" as="geometry" />
        </mxCell>
        <mxCell id="MVc7WZ1SkRlFC5I5kt_B-25" value="" style="line;strokeWidth=1;fillColor=none;align=left;verticalAlign=middle;spacingTop=-1;spacingLeft=3;spacingRight=3;rotatable=0;labelPosition=right;points=[];portConstraint=eastwest;strokeColor=inherit;fontStyle=0" parent="MVc7WZ1SkRlFC5I5kt_B-23" vertex="1">
          <mxGeometry y="80" width="170" height="30" as="geometry" />
        </mxCell>
        <mxCell id="MVc7WZ1SkRlFC5I5kt_B-26" value="LoanAnalyst" style="swimlane;fontStyle=1;align=center;verticalAlign=top;childLayout=stackLayout;horizontal=1;startSize=26;horizontalStack=0;resizeParent=1;resizeParentMax=0;resizeLast=0;collapsible=1;marginBottom=0;whiteSpace=wrap;html=1;" parent="1" vertex="1">
          <mxGeometry x="-320" y="217" width="170" height="90" as="geometry" />
        </mxCell>
        <mxCell id="MVc7WZ1SkRlFC5I5kt_B-27" value="&lt;font style=&quot;font-size: 11px;&quot;&gt;- approvalLevelReq: String&lt;/font&gt;&lt;div&gt;&lt;font style=&quot;font-size: 11px;&quot;&gt;&lt;br&gt;&lt;/font&gt;&lt;/div&gt;&lt;div&gt;&lt;br&gt;&lt;/div&gt;" style="text;strokeColor=none;fillColor=none;align=left;verticalAlign=top;spacingLeft=4;spacingRight=4;overflow=hidden;rotatable=0;points=[[0,0.5],[1,0.5]];portConstraint=eastwest;whiteSpace=wrap;html=1;fontStyle=0" parent="MVc7WZ1SkRlFC5I5kt_B-26" vertex="1">
          <mxGeometry y="26" width="170" height="34" as="geometry" />
        </mxCell>
        <mxCell id="MVc7WZ1SkRlFC5I5kt_B-28" value="" style="line;strokeWidth=1;fillColor=none;align=left;verticalAlign=middle;spacingTop=-1;spacingLeft=3;spacingRight=3;rotatable=0;labelPosition=right;points=[];portConstraint=eastwest;strokeColor=inherit;fontStyle=0" parent="MVc7WZ1SkRlFC5I5kt_B-26" vertex="1">
          <mxGeometry y="60" width="170" height="30" as="geometry" />
        </mxCell>
        <mxCell id="MVc7WZ1SkRlFC5I5kt_B-29" value="BillingAnalyst" style="swimlane;fontStyle=1;align=center;verticalAlign=top;childLayout=stackLayout;horizontal=1;startSize=26;horizontalStack=0;resizeParent=1;resizeParentMax=0;resizeLast=0;collapsible=1;marginBottom=0;whiteSpace=wrap;html=1;" parent="1" vertex="1">
          <mxGeometry x="79" y="218" width="170" height="90" as="geometry" />
        </mxCell>
        <mxCell id="MVc7WZ1SkRlFC5I5kt_B-30" value="&lt;font style=&quot;font-size: 11px;&quot;&gt;- mrtgBillingLvl: Integer&lt;br&gt;&lt;/font&gt;&lt;div&gt;&lt;font style=&quot;font-size: 11px;&quot;&gt;- custCommEnabled: Boolean&lt;/font&gt;&lt;/div&gt;" style="text;strokeColor=none;fillColor=none;align=left;verticalAlign=top;spacingLeft=4;spacingRight=4;overflow=hidden;rotatable=0;points=[[0,0.5],[1,0.5]];portConstraint=eastwest;whiteSpace=wrap;html=1;fontStyle=0" parent="MVc7WZ1SkRlFC5I5kt_B-29" vertex="1">
          <mxGeometry y="26" width="170" height="34" as="geometry" />
        </mxCell>
        <mxCell id="MVc7WZ1SkRlFC5I5kt_B-31" value="" style="line;strokeWidth=1;fillColor=none;align=left;verticalAlign=middle;spacingTop=-1;spacingLeft=3;spacingRight=3;rotatable=0;labelPosition=right;points=[];portConstraint=eastwest;strokeColor=inherit;fontStyle=0" parent="MVc7WZ1SkRlFC5I5kt_B-29" vertex="1">
          <mxGeometry y="60" width="170" height="30" as="geometry" />
        </mxCell>
        <mxCell id="MVc7WZ1SkRlFC5I5kt_B-32" value="CreditOfficer" style="swimlane;fontStyle=1;align=center;verticalAlign=top;childLayout=stackLayout;horizontal=1;startSize=26;horizontalStack=0;resizeParent=1;resizeParentMax=0;resizeLast=0;collapsible=1;marginBottom=0;whiteSpace=wrap;html=1;" parent="1" vertex="1">
          <mxGeometry x="460" y="217" width="170" height="100" as="geometry" />
        </mxCell>
        <mxCell id="MVc7WZ1SkRlFC5I5kt_B-33" value="&lt;div&gt;&lt;font style=&quot;font-size: 11px;&quot;&gt;&lt;span style=&quot;background-color: transparent; color: light-dark(rgb(0, 0, 0), rgb(255, 255, 255));&quot;&gt;- isCommentator: Boolean&lt;/span&gt;&lt;br&gt;&lt;/font&gt;&lt;/div&gt;&lt;div&gt;&lt;span style=&quot;background-color: transparent; color: light-dark(rgb(0, 0, 0), rgb(255, 255, 255));&quot;&gt;&lt;font style=&quot;font-size: 11px;&quot;&gt;&lt;br&gt;&lt;/font&gt;&lt;/span&gt;&lt;/div&gt;&lt;div&gt;&lt;br&gt;&lt;/div&gt;" style="text;strokeColor=none;fillColor=none;align=left;verticalAlign=top;spacingLeft=4;spacingRight=4;overflow=hidden;rotatable=0;points=[[0,0.5],[1,0.5]];portConstraint=eastwest;whiteSpace=wrap;html=1;fontStyle=0" parent="MVc7WZ1SkRlFC5I5kt_B-32" vertex="1">
          <mxGeometry y="26" width="170" height="44" as="geometry" />
        </mxCell>
        <mxCell id="MVc7WZ1SkRlFC5I5kt_B-34" value="" style="line;strokeWidth=1;fillColor=none;align=left;verticalAlign=middle;spacingTop=-1;spacingLeft=3;spacingRight=3;rotatable=0;labelPosition=right;points=[];portConstraint=eastwest;strokeColor=inherit;fontStyle=0" parent="MVc7WZ1SkRlFC5I5kt_B-32" vertex="1">
          <mxGeometry y="70" width="170" height="30" as="geometry" />
        </mxCell>
        <mxCell id="MVc7WZ1SkRlFC5I5kt_B-35" value="TreasuryAnalyst" style="swimlane;fontStyle=1;align=center;verticalAlign=top;childLayout=stackLayout;horizontal=1;startSize=26;horizontalStack=0;resizeParent=1;resizeParentMax=0;resizeLast=0;collapsible=1;marginBottom=0;whiteSpace=wrap;html=1;" parent="1" vertex="1">
          <mxGeometry x="-115" y="217" width="170" height="90" as="geometry" />
        </mxCell>
        <mxCell id="MVc7WZ1SkRlFC5I5kt_B-36" value="&lt;font style=&quot;font-size: 11px;&quot;&gt;- bankAccAccess: list&amp;lt;string&amp;gt;&lt;/font&gt;&lt;div&gt;&lt;br&gt;&lt;/div&gt;" style="text;strokeColor=none;fillColor=none;align=left;verticalAlign=top;spacingLeft=4;spacingRight=4;overflow=hidden;rotatable=0;points=[[0,0.5],[1,0.5]];portConstraint=eastwest;whiteSpace=wrap;html=1;fontStyle=0" parent="MVc7WZ1SkRlFC5I5kt_B-35" vertex="1">
          <mxGeometry y="26" width="170" height="34" as="geometry" />
        </mxCell>
        <mxCell id="MVc7WZ1SkRlFC5I5kt_B-37" value="" style="line;strokeWidth=1;fillColor=none;align=left;verticalAlign=middle;spacingTop=-1;spacingLeft=3;spacingRight=3;rotatable=0;labelPosition=right;points=[];portConstraint=eastwest;strokeColor=inherit;fontStyle=0" parent="MVc7WZ1SkRlFC5I5kt_B-35" vertex="1">
          <mxGeometry y="60" width="170" height="30" as="geometry" />
        </mxCell>
        <mxCell id="MVc7WZ1SkRlFC5I5kt_B-38" value="Address" style="swimlane;fontStyle=1;align=center;verticalAlign=top;childLayout=stackLayout;horizontal=1;startSize=26;horizontalStack=0;resizeParent=1;resizeParentMax=0;resizeLast=0;collapsible=1;marginBottom=0;whiteSpace=wrap;html=1;" parent="1" vertex="1">
          <mxGeometry x="570" y="-20" width="160" height="180" as="geometry" />
        </mxCell>
        <mxCell id="MVc7WZ1SkRlFC5I5kt_B-39" value="&lt;font style=&quot;font-size: 11px;&quot;&gt;- street1: String&lt;/font&gt;&lt;div&gt;&lt;font style=&quot;font-size: 11px;&quot;&gt;- street2: String&lt;/font&gt;&lt;/div&gt;&lt;div&gt;&lt;font style=&quot;font-size: 11px;&quot;&gt;- buildingName: String&lt;/font&gt;&lt;/div&gt;&lt;div&gt;&lt;font style=&quot;font-size: 11px;&quot;&gt;- apptNo: String&lt;/font&gt;&lt;/div&gt;&lt;div&gt;&lt;font style=&quot;font-size: 11px;&quot;&gt;- postOfficeBox: String&lt;/font&gt;&lt;/div&gt;&lt;div&gt;&lt;font style=&quot;font-size: 11px;&quot;&gt;- cityName: String&lt;/font&gt;&lt;/div&gt;&lt;div&gt;&lt;font style=&quot;font-size: 11px;&quot;&gt;- stateName: String&lt;/font&gt;&lt;/div&gt;&lt;div&gt;&lt;font style=&quot;font-size: 11px;&quot;&gt;- zipCode: Integer&lt;/font&gt;&lt;/div&gt;" style="text;strokeColor=none;fillColor=none;align=left;verticalAlign=top;spacingLeft=4;spacingRight=4;overflow=hidden;rotatable=0;points=[[0,0.5],[1,0.5]];portConstraint=eastwest;whiteSpace=wrap;html=1;fontStyle=0" parent="MVc7WZ1SkRlFC5I5kt_B-38" vertex="1">
          <mxGeometry y="26" width="160" height="124" as="geometry" />
        </mxCell>
        <mxCell id="MVc7WZ1SkRlFC5I5kt_B-40" value="" style="line;strokeWidth=1;fillColor=none;align=left;verticalAlign=middle;spacingTop=-1;spacingLeft=3;spacingRight=3;rotatable=0;labelPosition=right;points=[];portConstraint=eastwest;strokeColor=inherit;fontStyle=0" parent="MVc7WZ1SkRlFC5I5kt_B-38" vertex="1">
          <mxGeometry y="150" width="160" height="30" as="geometry" />
        </mxCell>
        <mxCell id="MVc7WZ1SkRlFC5I5kt_B-44" value="Loan" style="swimlane;fontStyle=1;align=center;verticalAlign=top;childLayout=stackLayout;horizontal=1;startSize=26;horizontalStack=0;resizeParent=1;resizeParentMax=0;resizeLast=0;collapsible=1;marginBottom=0;whiteSpace=wrap;html=1;" parent="1" vertex="1">
          <mxGeometry x="70" y="410" width="160" height="110" as="geometry" />
        </mxCell>
        <mxCell id="MVc7WZ1SkRlFC5I5kt_B-45" value="- loanNumber: Integer&lt;div&gt;- loanNickname: String&lt;/div&gt;&lt;div&gt;- loanState: List&amp;lt;String&amp;gt;&lt;/div&gt;" style="text;strokeColor=none;fillColor=none;align=left;verticalAlign=top;spacingLeft=4;spacingRight=4;overflow=hidden;rotatable=0;points=[[0,0.5],[1,0.5]];portConstraint=eastwest;whiteSpace=wrap;html=1;fontSize=11;fontStyle=0" parent="MVc7WZ1SkRlFC5I5kt_B-44" vertex="1">
          <mxGeometry y="26" width="160" height="44" as="geometry" />
        </mxCell>
        <mxCell id="MVc7WZ1SkRlFC5I5kt_B-46" value="" style="line;strokeWidth=1;fillColor=none;align=left;verticalAlign=middle;spacingTop=-1;spacingLeft=3;spacingRight=3;rotatable=0;labelPosition=right;points=[];portConstraint=eastwest;strokeColor=inherit;fontStyle=0" parent="MVc7WZ1SkRlFC5I5kt_B-44" vertex="1">
          <mxGeometry y="70" width="160" height="20" as="geometry" />
        </mxCell>
        <mxCell id="dOF6ThdAv8QO7OxwCsO3-15" value="&lt;div style=&quot;text-align: center;&quot;&gt;+ setPhase(String): String&lt;/div&gt;" style="text;strokeColor=none;fillColor=none;align=left;verticalAlign=top;spacingLeft=4;spacingRight=4;overflow=hidden;rotatable=0;points=[[0,0.5],[1,0.5]];portConstraint=eastwest;whiteSpace=wrap;html=1;fontSize=10;spacing=0;fontStyle=0" parent="MVc7WZ1SkRlFC5I5kt_B-44" vertex="1">
          <mxGeometry y="90" width="160" height="20" as="geometry" />
        </mxCell>
        <mxCell id="MVc7WZ1SkRlFC5I5kt_B-47" value="Portfolio" style="swimlane;fontStyle=1;align=center;verticalAlign=top;childLayout=stackLayout;horizontal=1;startSize=26;horizontalStack=0;resizeParent=1;resizeParentMax=0;resizeLast=0;collapsible=1;marginBottom=0;whiteSpace=wrap;html=1;" parent="1" vertex="1">
          <mxGeometry x="-350" y="410" width="160" height="90" as="geometry" />
        </mxCell>
        <mxCell id="MVc7WZ1SkRlFC5I5kt_B-48" value="&lt;font&gt;- portfolioName: String&lt;/font&gt;&lt;div&gt;&lt;font&gt;- portfolioNumber: Integer&lt;/font&gt;&lt;/div&gt;" style="text;strokeColor=none;fillColor=none;align=left;verticalAlign=top;spacingLeft=4;spacingRight=4;overflow=hidden;rotatable=0;points=[[0,0.5],[1,0.5]];portConstraint=eastwest;whiteSpace=wrap;html=1;fontSize=11;fontStyle=0" parent="MVc7WZ1SkRlFC5I5kt_B-47" vertex="1">
          <mxGeometry y="26" width="160" height="34" as="geometry" />
        </mxCell>
        <mxCell id="MVc7WZ1SkRlFC5I5kt_B-49" value="" style="line;strokeWidth=1;fillColor=none;align=left;verticalAlign=middle;spacingTop=-1;spacingLeft=3;spacingRight=3;rotatable=0;labelPosition=right;points=[];portConstraint=eastwest;strokeColor=inherit;fontStyle=0" parent="MVc7WZ1SkRlFC5I5kt_B-47" vertex="1">
          <mxGeometry y="60" width="160" height="30" as="geometry" />
        </mxCell>
        <mxCell id="MVc7WZ1SkRlFC5I5kt_B-59" value="FinancialInfo" style="swimlane;fontStyle=1;align=center;verticalAlign=top;childLayout=stackLayout;horizontal=1;startSize=26;horizontalStack=0;resizeParent=1;resizeParentMax=0;resizeLast=0;collapsible=1;marginBottom=0;whiteSpace=wrap;html=1;" parent="1" vertex="1">
          <mxGeometry x="-140" y="517" width="160" height="250" as="geometry" />
        </mxCell>
        <mxCell id="MVc7WZ1SkRlFC5I5kt_B-60" value="- asOfDate: Date&lt;div&gt;- collateralCashFlows: Double&lt;/div&gt;&lt;div&gt;- occupancyRate: Double&lt;/div&gt;&lt;div&gt;- borrowerNetWorth: Double&lt;/div&gt;&lt;div&gt;- borrowerExcessLiq: Double&lt;/div&gt;&lt;div&gt;&lt;span style=&quot;background-color: transparent; color: light-dark(rgb(0, 0, 0), rgb(255, 255, 255));&quot;&gt;- covenantType: List&amp;lt;String&amp;gt;&lt;/span&gt;&lt;br&gt;&lt;/div&gt;&lt;div&gt;&lt;div&gt;- covenantThreshold: Double&lt;/div&gt;&lt;div&gt;- covenantActValue: Double&lt;/div&gt;&lt;div&gt;&lt;span style=&quot;background-color: transparent; color: light-dark(rgb(0, 0, 0), rgb(255, 255, 255));&quot;&gt;- isCovenantDefault: Boolean&lt;/span&gt;&lt;br&gt;&lt;/div&gt;&lt;div&gt;&lt;span style=&quot;background-color: transparent; color: light-dark(rgb(0, 0, 0), rgb(255, 255, 255));&quot;&gt;- isPymntDefault: Boolean&lt;/span&gt;&lt;/div&gt;&lt;div&gt;&lt;span style=&quot;background-color: transparent; color: light-dark(rgb(0, 0, 0), rgb(255, 255, 255));&quot;&gt;- isPymntDfltRemd: Boolean&lt;/span&gt;&lt;/div&gt;&lt;div&gt;&lt;span style=&quot;background-color: transparent; color: light-dark(rgb(0, 0, 0), rgb(255, 255, 255));&quot;&gt;- redemedyDescript: String&lt;/span&gt;&lt;/div&gt;&lt;div&gt;- loanRealizedLoss: Double&lt;/div&gt;&lt;div&gt;&lt;br&gt;&lt;/div&gt;&lt;/div&gt;&lt;div&gt;&lt;div&gt;&lt;br&gt;&lt;div&gt;&lt;br&gt;&lt;/div&gt;&lt;/div&gt;&lt;/div&gt;" style="text;strokeColor=none;fillColor=none;align=left;verticalAlign=top;spacingLeft=4;spacingRight=4;overflow=hidden;rotatable=0;points=[[0,0.5],[1,0.5]];portConstraint=eastwest;whiteSpace=wrap;html=1;fontSize=11;fontStyle=0" parent="MVc7WZ1SkRlFC5I5kt_B-59" vertex="1">
          <mxGeometry y="26" width="160" height="194" as="geometry" />
        </mxCell>
        <mxCell id="MVc7WZ1SkRlFC5I5kt_B-61" value="" style="line;strokeWidth=1;fillColor=none;align=left;verticalAlign=middle;spacingTop=-1;spacingLeft=3;spacingRight=3;rotatable=0;labelPosition=right;points=[];portConstraint=eastwest;strokeColor=inherit;fontStyle=0" parent="MVc7WZ1SkRlFC5I5kt_B-59" vertex="1">
          <mxGeometry y="220" width="160" height="30" as="geometry" />
        </mxCell>
        <mxCell id="MVc7WZ1SkRlFC5I5kt_B-65" value="LoanDetails" style="swimlane;fontStyle=1;align=center;verticalAlign=top;childLayout=stackLayout;horizontal=1;startSize=26;horizontalStack=0;resizeParent=1;resizeParentMax=0;resizeLast=0;collapsible=1;marginBottom=0;whiteSpace=wrap;html=1;" parent="1" vertex="1">
          <mxGeometry x="-350" y="728" width="160" height="220" as="geometry" />
        </mxCell>
        <mxCell id="MVc7WZ1SkRlFC5I5kt_B-66" value="&lt;div&gt;- modEffectiveDate: Date&lt;/div&gt;- closingDate: Date&lt;div&gt;- maturityDate: Date&lt;/div&gt;&lt;div&gt;- pymtFrequency: List&amp;lt;String&amp;gt;&lt;/div&gt;&lt;div&gt;- pymtType: List&amp;lt;String&amp;gt;&lt;/div&gt;&lt;div&gt;- prepayPenaltyType&lt;/div&gt;&lt;div&gt;- prepayPenaltyAmt: Double&lt;br&gt;&lt;div&gt;- dateModified: Date&lt;/div&gt;&lt;div&gt;- closingFee: Double&lt;/div&gt;&lt;div&gt;- originatorName: String&lt;/div&gt;&lt;div&gt;- intRate: Double&lt;/div&gt;&lt;div&gt;&lt;br&gt;&lt;/div&gt;&lt;div&gt;&lt;br&gt;&lt;div&gt;&lt;br&gt;&lt;/div&gt;&lt;/div&gt;&lt;/div&gt;" style="text;strokeColor=none;fillColor=none;align=left;verticalAlign=top;spacingLeft=4;spacingRight=4;overflow=hidden;rotatable=0;points=[[0,0.5],[1,0.5]];portConstraint=eastwest;whiteSpace=wrap;html=1;fontSize=11;fontStyle=0" parent="MVc7WZ1SkRlFC5I5kt_B-65" vertex="1">
          <mxGeometry y="26" width="160" height="164" as="geometry" />
        </mxCell>
        <mxCell id="MVc7WZ1SkRlFC5I5kt_B-67" value="" style="line;strokeWidth=1;fillColor=none;align=left;verticalAlign=middle;spacingTop=-1;spacingLeft=3;spacingRight=3;rotatable=0;labelPosition=right;points=[];portConstraint=eastwest;strokeColor=inherit;fontStyle=0" parent="MVc7WZ1SkRlFC5I5kt_B-65" vertex="1">
          <mxGeometry y="190" width="160" height="30" as="geometry" />
        </mxCell>
        <mxCell id="MVc7WZ1SkRlFC5I5kt_B-68" value="CashFlows" style="swimlane;fontStyle=1;align=center;verticalAlign=top;childLayout=stackLayout;horizontal=1;startSize=26;horizontalStack=0;resizeParent=1;resizeParentMax=0;resizeLast=0;collapsible=1;marginBottom=0;whiteSpace=wrap;html=1;" parent="1" vertex="1">
          <mxGeometry x="70" y="571" width="160" height="90" as="geometry" />
        </mxCell>
        <mxCell id="MVc7WZ1SkRlFC5I5kt_B-69" value="- asOfDate: Date&lt;div&gt;&lt;br&gt;&lt;/div&gt;" style="text;strokeColor=none;fillColor=none;align=left;verticalAlign=top;spacingLeft=4;spacingRight=4;overflow=hidden;rotatable=0;points=[[0,0.5],[1,0.5]];portConstraint=eastwest;whiteSpace=wrap;html=1;fontSize=11;fontStyle=0" parent="MVc7WZ1SkRlFC5I5kt_B-68" vertex="1">
          <mxGeometry y="26" width="160" height="34" as="geometry" />
        </mxCell>
        <mxCell id="MVc7WZ1SkRlFC5I5kt_B-70" value="" style="line;strokeWidth=1;fillColor=none;align=left;verticalAlign=middle;spacingTop=-1;spacingLeft=3;spacingRight=3;rotatable=0;labelPosition=right;points=[];portConstraint=eastwest;strokeColor=inherit;fontStyle=0" parent="MVc7WZ1SkRlFC5I5kt_B-68" vertex="1">
          <mxGeometry y="60" width="160" height="30" as="geometry" />
        </mxCell>
        <mxCell id="MVc7WZ1SkRlFC5I5kt_B-71" value="Collateral" style="swimlane;fontStyle=1;align=center;verticalAlign=top;childLayout=stackLayout;horizontal=1;startSize=26;horizontalStack=0;resizeParent=1;resizeParentMax=0;resizeLast=0;collapsible=1;marginBottom=0;whiteSpace=wrap;html=1;" parent="1" vertex="1">
          <mxGeometry x="-350" y="517" width="160" height="190" as="geometry" />
        </mxCell>
        <mxCell id="MVc7WZ1SkRlFC5I5kt_B-72" value="&lt;div&gt;- addedDate: Date&lt;/div&gt;&lt;div&gt;- removedDate: Date&lt;/div&gt;&lt;div&gt;- legalEffectiveDate: Date&lt;/div&gt;&lt;div&gt;- collateralName: String&lt;/div&gt;&lt;div&gt;- collateralDescription: String&lt;/div&gt;&lt;div&gt;- collateralType: List&amp;lt;String&amp;gt;&lt;/div&gt;&lt;div&gt;- appraisedValue: Double&lt;/div&gt;&lt;div&gt;- appraisalDate: Date&lt;/div&gt;&lt;div&gt;- areFinancialsReq: Boolean&lt;/div&gt;&lt;div&gt;&lt;br&gt;&lt;/div&gt;&lt;div&gt;&lt;br&gt;&lt;/div&gt;" style="text;strokeColor=none;fillColor=none;align=left;verticalAlign=top;spacingLeft=4;spacingRight=4;overflow=hidden;rotatable=0;points=[[0,0.5],[1,0.5]];portConstraint=eastwest;whiteSpace=wrap;html=1;fontSize=11;fontStyle=0" parent="MVc7WZ1SkRlFC5I5kt_B-71" vertex="1">
          <mxGeometry y="26" width="160" height="134" as="geometry" />
        </mxCell>
        <mxCell id="MVc7WZ1SkRlFC5I5kt_B-73" value="" style="line;strokeWidth=1;fillColor=none;align=left;verticalAlign=middle;spacingTop=-1;spacingLeft=3;spacingRight=3;rotatable=0;labelPosition=right;points=[];portConstraint=eastwest;strokeColor=inherit;fontStyle=0" parent="MVc7WZ1SkRlFC5I5kt_B-71" vertex="1">
          <mxGeometry y="160" width="160" height="30" as="geometry" />
        </mxCell>
        <mxCell id="MVc7WZ1SkRlFC5I5kt_B-77" value="Invoice" style="swimlane;fontStyle=1;align=center;verticalAlign=top;childLayout=stackLayout;horizontal=1;startSize=26;horizontalStack=0;resizeParent=1;resizeParentMax=0;resizeLast=0;collapsible=1;marginBottom=0;whiteSpace=wrap;html=1;" parent="1" vertex="1">
          <mxGeometry x="68" y="860" width="160" height="170" as="geometry" />
        </mxCell>
        <mxCell id="MVc7WZ1SkRlFC5I5kt_B-78" value="&lt;div&gt;- principalDue: Double&lt;/div&gt;&lt;div&gt;- interestDue: Double&lt;/div&gt;&lt;div&gt;- otherFeesDue: Double&lt;/div&gt;&lt;div&gt;- taxEscrowDue: Double&lt;/div&gt;&lt;div&gt;- carryoverBalance: Double&lt;/div&gt;&lt;div&gt;- totalBalance: Double&lt;/div&gt;&lt;div&gt;- date: Date&lt;/div&gt;&lt;div&gt;- asOfDate: Date&lt;/div&gt;" style="text;strokeColor=none;fillColor=none;align=left;verticalAlign=top;spacingLeft=4;spacingRight=4;overflow=hidden;rotatable=0;points=[[0,0.5],[1,0.5]];portConstraint=eastwest;whiteSpace=wrap;html=1;fontSize=11;fontStyle=0" parent="MVc7WZ1SkRlFC5I5kt_B-77" vertex="1">
          <mxGeometry y="26" width="160" height="114" as="geometry" />
        </mxCell>
        <mxCell id="MVc7WZ1SkRlFC5I5kt_B-79" value="" style="line;strokeWidth=1;fillColor=none;align=left;verticalAlign=middle;spacingTop=-1;spacingLeft=3;spacingRight=3;rotatable=0;labelPosition=right;points=[];portConstraint=eastwest;strokeColor=inherit;fontStyle=0" parent="MVc7WZ1SkRlFC5I5kt_B-77" vertex="1">
          <mxGeometry y="140" width="160" height="30" as="geometry" />
        </mxCell>
        <mxCell id="MVc7WZ1SkRlFC5I5kt_B-84" value="CFLineItem" style="swimlane;fontStyle=1;align=center;verticalAlign=top;childLayout=stackLayout;horizontal=1;startSize=26;horizontalStack=0;resizeParent=1;resizeParentMax=0;resizeLast=0;collapsible=1;marginBottom=0;whiteSpace=wrap;html=1;" parent="1" vertex="1">
          <mxGeometry x="70" y="703" width="160" height="130" as="geometry" />
        </mxCell>
        <mxCell id="MVc7WZ1SkRlFC5I5kt_B-85" value="&lt;div&gt;&lt;span style=&quot;background-color: transparent; color: light-dark(rgb(0, 0, 0), rgb(255, 255, 255));&quot;&gt;- category: List&amp;lt;String&amp;gt;&lt;/span&gt;&lt;br&gt;&lt;/div&gt;&lt;div&gt;- calculatedAmount: Double&lt;/div&gt;&lt;div&gt;- Received Amoun&lt;span style=&quot;background-color: transparent; color: light-dark(rgb(0, 0, 0), rgb(255, 255, 255));&quot;&gt;t: Double&lt;/span&gt;&lt;/div&gt;&lt;div&gt;&lt;span style=&quot;background-color: transparent; color: light-dark(rgb(0, 0, 0), rgb(255, 255, 255));&quot;&gt;- Expected Date: Date&lt;/span&gt;&lt;/div&gt;&lt;div&gt;&lt;span style=&quot;background-color: transparent; color: light-dark(rgb(0, 0, 0), rgb(255, 255, 255));&quot;&gt;- Received Date: Date&lt;/span&gt;&lt;/div&gt;" style="text;strokeColor=none;fillColor=none;align=left;verticalAlign=top;spacingLeft=4;spacingRight=4;overflow=hidden;rotatable=0;points=[[0,0.5],[1,0.5]];portConstraint=eastwest;whiteSpace=wrap;html=1;fontSize=11;fontStyle=0" parent="MVc7WZ1SkRlFC5I5kt_B-84" vertex="1">
          <mxGeometry y="26" width="160" height="74" as="geometry" />
        </mxCell>
        <mxCell id="MVc7WZ1SkRlFC5I5kt_B-86" value="" style="line;strokeWidth=1;fillColor=none;align=left;verticalAlign=middle;spacingTop=-1;spacingLeft=3;spacingRight=3;rotatable=0;labelPosition=right;points=[];portConstraint=eastwest;strokeColor=inherit;fontStyle=0" parent="MVc7WZ1SkRlFC5I5kt_B-84" vertex="1">
          <mxGeometry y="100" width="160" height="30" as="geometry" />
        </mxCell>
        <mxCell id="MVc7WZ1SkRlFC5I5kt_B-90" value="JournalEntry" style="swimlane;fontStyle=1;align=center;verticalAlign=top;childLayout=stackLayout;horizontal=1;startSize=26;horizontalStack=0;resizeParent=1;resizeParentMax=0;resizeLast=0;collapsible=1;marginBottom=0;whiteSpace=wrap;html=1;" parent="1" vertex="1">
          <mxGeometry x="650" y="550" width="160" height="90" as="geometry" />
        </mxCell>
        <mxCell id="MVc7WZ1SkRlFC5I5kt_B-91" value="- asOfDate: Date&lt;div&gt;&lt;br&gt;&lt;/div&gt;" style="text;strokeColor=none;fillColor=none;align=left;verticalAlign=top;spacingLeft=4;spacingRight=4;overflow=hidden;rotatable=0;points=[[0,0.5],[1,0.5]];portConstraint=eastwest;whiteSpace=wrap;html=1;fontSize=11;fontStyle=0" parent="MVc7WZ1SkRlFC5I5kt_B-90" vertex="1">
          <mxGeometry y="26" width="160" height="34" as="geometry" />
        </mxCell>
        <mxCell id="MVc7WZ1SkRlFC5I5kt_B-92" value="" style="line;strokeWidth=1;fillColor=none;align=left;verticalAlign=middle;spacingTop=-1;spacingLeft=3;spacingRight=3;rotatable=0;labelPosition=right;points=[];portConstraint=eastwest;strokeColor=inherit;fontStyle=0" parent="MVc7WZ1SkRlFC5I5kt_B-90" vertex="1">
          <mxGeometry y="60" width="160" height="30" as="geometry" />
        </mxCell>
        <mxCell id="MVc7WZ1SkRlFC5I5kt_B-105" value="Loan Commentary" style="swimlane;fontStyle=1;align=center;verticalAlign=top;childLayout=stackLayout;horizontal=1;startSize=26;horizontalStack=0;resizeParent=1;resizeParentMax=0;resizeLast=0;collapsible=1;marginBottom=0;whiteSpace=wrap;html=1;" parent="1" vertex="1">
          <mxGeometry x="530" y="922" width="160" height="90" as="geometry" />
        </mxCell>
        <mxCell id="MVc7WZ1SkRlFC5I5kt_B-106" value="&lt;div&gt;- date: Date&lt;/div&gt;&lt;div&gt;- commentaryText: String&lt;/div&gt;" style="text;strokeColor=none;fillColor=none;align=left;verticalAlign=top;spacingLeft=4;spacingRight=4;overflow=hidden;rotatable=0;points=[[0,0.5],[1,0.5]];portConstraint=eastwest;whiteSpace=wrap;html=1;fontSize=11;fontStyle=0" parent="MVc7WZ1SkRlFC5I5kt_B-105" vertex="1">
          <mxGeometry y="26" width="160" height="34" as="geometry" />
        </mxCell>
        <mxCell id="MVc7WZ1SkRlFC5I5kt_B-107" value="" style="line;strokeWidth=1;fillColor=none;align=left;verticalAlign=middle;spacingTop=-1;spacingLeft=3;spacingRight=3;rotatable=0;labelPosition=right;points=[];portConstraint=eastwest;strokeColor=inherit;fontStyle=0" parent="MVc7WZ1SkRlFC5I5kt_B-105" vertex="1">
          <mxGeometry y="60" width="160" height="30" as="geometry" />
        </mxCell>
        <mxCell id="MVc7WZ1SkRlFC5I5kt_B-117" value="JournalEntryLineItem" style="swimlane;fontStyle=1;align=center;verticalAlign=top;childLayout=stackLayout;horizontal=1;startSize=26;horizontalStack=0;resizeParent=1;resizeParentMax=0;resizeLast=0;collapsible=1;marginBottom=0;whiteSpace=wrap;html=1;" parent="1" vertex="1">
          <mxGeometry x="650" y="667" width="160" height="100" as="geometry" />
        </mxCell>
        <mxCell id="MVc7WZ1SkRlFC5I5kt_B-118" value="&lt;div&gt;- account: Integer&lt;/div&gt;- amount: Double&lt;div&gt;- description: String&lt;br&gt;&lt;div&gt;&lt;br&gt;&lt;div&gt;&lt;br&gt;&lt;/div&gt;&lt;/div&gt;&lt;/div&gt;" style="text;strokeColor=none;fillColor=none;align=left;verticalAlign=top;spacingLeft=4;spacingRight=4;overflow=hidden;rotatable=0;points=[[0,0.5],[1,0.5]];portConstraint=eastwest;whiteSpace=wrap;html=1;fontSize=11;fontStyle=0" parent="MVc7WZ1SkRlFC5I5kt_B-117" vertex="1">
          <mxGeometry y="26" width="160" height="44" as="geometry" />
        </mxCell>
        <mxCell id="MVc7WZ1SkRlFC5I5kt_B-119" value="" style="line;strokeWidth=1;fillColor=none;align=left;verticalAlign=middle;spacingTop=-1;spacingLeft=3;spacingRight=3;rotatable=0;labelPosition=right;points=[];portConstraint=eastwest;strokeColor=inherit;fontStyle=0" parent="MVc7WZ1SkRlFC5I5kt_B-117" vertex="1">
          <mxGeometry y="70" width="160" height="30" as="geometry" />
        </mxCell>
        <mxCell id="MVc7WZ1SkRlFC5I5kt_B-135" value="AmortSchedule" style="swimlane;fontStyle=1;align=center;verticalAlign=top;childLayout=stackLayout;horizontal=1;startSize=26;horizontalStack=0;resizeParent=1;resizeParentMax=0;resizeLast=0;collapsible=1;marginBottom=0;whiteSpace=wrap;html=1;" parent="1" vertex="1">
          <mxGeometry x="-140" y="796" width="160" height="80" as="geometry" />
        </mxCell>
        <mxCell id="MVc7WZ1SkRlFC5I5kt_B-136" value="- asOfDate: Date&lt;div&gt;&lt;br&gt;&lt;/div&gt;&lt;div&gt;&lt;div&gt;&lt;br&gt;&lt;/div&gt;&lt;/div&gt;" style="text;strokeColor=none;fillColor=none;align=left;verticalAlign=top;spacingLeft=4;spacingRight=4;overflow=hidden;rotatable=0;points=[[0,0.5],[1,0.5]];portConstraint=eastwest;whiteSpace=wrap;html=1;fontSize=11;fontStyle=0" parent="MVc7WZ1SkRlFC5I5kt_B-135" vertex="1">
          <mxGeometry y="26" width="160" height="24" as="geometry" />
        </mxCell>
        <mxCell id="MVc7WZ1SkRlFC5I5kt_B-137" value="" style="line;strokeWidth=1;fillColor=none;align=left;verticalAlign=middle;spacingTop=-1;spacingLeft=3;spacingRight=3;rotatable=0;labelPosition=right;points=[];portConstraint=eastwest;strokeColor=inherit;fontStyle=0" parent="MVc7WZ1SkRlFC5I5kt_B-135" vertex="1">
          <mxGeometry y="50" width="160" height="30" as="geometry" />
        </mxCell>
        <mxCell id="E4u7SWDCAfa03cuSUIF7-1" value="" style="endArrow=none;html=1;rounded=0;edgeStyle=orthogonalEdgeStyle;jumpStyle=none;fontStyle=0" parent="1" edge="1">
          <mxGeometry width="50" height="50" relative="1" as="geometry">
            <mxPoint x="-240" y="187" as="sourcePoint" />
            <mxPoint x="540" y="187" as="targetPoint" />
          </mxGeometry>
        </mxCell>
        <mxCell id="E4u7SWDCAfa03cuSUIF7-2" value="" style="endArrow=none;html=1;rounded=0;exitX=0.5;exitY=0;exitDx=0;exitDy=0;fontStyle=0" parent="1" source="MVc7WZ1SkRlFC5I5kt_B-35" edge="1">
          <mxGeometry width="50" height="50" relative="1" as="geometry">
            <mxPoint x="490" y="337" as="sourcePoint" />
            <mxPoint x="-30" y="187" as="targetPoint" />
          </mxGeometry>
        </mxCell>
        <mxCell id="E4u7SWDCAfa03cuSUIF7-14" value="Is A" style="edgeLabel;html=1;align=center;verticalAlign=middle;resizable=0;points=[];fontFamily=Helvetica;fontSize=11;fontColor=default;labelBackgroundColor=default;fontStyle=0" parent="E4u7SWDCAfa03cuSUIF7-2" vertex="1" connectable="0">
          <mxGeometry x="-0.0784" y="-3" relative="1" as="geometry">
            <mxPoint as="offset" />
          </mxGeometry>
        </mxCell>
        <mxCell id="E4u7SWDCAfa03cuSUIF7-3" value="" style="endArrow=none;html=1;rounded=0;exitX=0.471;exitY=0;exitDx=0;exitDy=0;exitPerimeter=0;fontStyle=0" parent="1" source="MVc7WZ1SkRlFC5I5kt_B-26" edge="1">
          <mxGeometry width="50" height="50" relative="1" as="geometry">
            <mxPoint x="486" y="337" as="sourcePoint" />
            <mxPoint x="-240" y="187" as="targetPoint" />
          </mxGeometry>
        </mxCell>
        <mxCell id="E4u7SWDCAfa03cuSUIF7-15" value="Is A" style="edgeLabel;html=1;align=center;verticalAlign=middle;resizable=0;points=[];fontFamily=Helvetica;fontSize=11;fontColor=default;labelBackgroundColor=default;fontStyle=0" parent="E4u7SWDCAfa03cuSUIF7-3" vertex="1" connectable="0">
          <mxGeometry y="1" relative="1" as="geometry">
            <mxPoint as="offset" />
          </mxGeometry>
        </mxCell>
        <mxCell id="E4u7SWDCAfa03cuSUIF7-4" value="" style="endArrow=none;html=1;rounded=0;exitX=0.5;exitY=0;exitDx=0;exitDy=0;fontStyle=0" parent="1" edge="1">
          <mxGeometry width="50" height="50" relative="1" as="geometry">
            <mxPoint x="158" y="217" as="sourcePoint" />
            <mxPoint x="158" y="187" as="targetPoint" />
          </mxGeometry>
        </mxCell>
        <mxCell id="E4u7SWDCAfa03cuSUIF7-16" value="Is A" style="edgeLabel;html=1;align=center;verticalAlign=middle;resizable=0;points=[];fontFamily=Helvetica;fontSize=11;fontColor=default;labelBackgroundColor=default;fontStyle=0" parent="E4u7SWDCAfa03cuSUIF7-4" vertex="1" connectable="0">
          <mxGeometry x="0.2353" relative="1" as="geometry">
            <mxPoint y="4" as="offset" />
          </mxGeometry>
        </mxCell>
        <mxCell id="E4u7SWDCAfa03cuSUIF7-5" value="" style="endArrow=none;html=1;rounded=0;exitX=0.5;exitY=0;exitDx=0;exitDy=0;fontStyle=0" parent="1" source="MVc7WZ1SkRlFC5I5kt_B-23" edge="1">
          <mxGeometry width="50" height="50" relative="1" as="geometry">
            <mxPoint x="348.83" y="213" as="sourcePoint" />
            <mxPoint x="349" y="187" as="targetPoint" />
          </mxGeometry>
        </mxCell>
        <mxCell id="E4u7SWDCAfa03cuSUIF7-17" value="Is A" style="edgeLabel;html=1;align=center;verticalAlign=middle;resizable=0;points=[];fontFamily=Helvetica;fontSize=11;fontColor=default;labelBackgroundColor=default;fontStyle=0" parent="E4u7SWDCAfa03cuSUIF7-5" vertex="1" connectable="0">
          <mxGeometry x="-0.1569" y="1" relative="1" as="geometry">
            <mxPoint y="-3" as="offset" />
          </mxGeometry>
        </mxCell>
        <mxCell id="E4u7SWDCAfa03cuSUIF7-6" value="" style="endArrow=none;html=1;rounded=0;fontStyle=0" parent="1" edge="1">
          <mxGeometry width="50" height="50" relative="1" as="geometry">
            <mxPoint x="540" y="217" as="sourcePoint" />
            <mxPoint x="540" y="187" as="targetPoint" />
          </mxGeometry>
        </mxCell>
        <mxCell id="E4u7SWDCAfa03cuSUIF7-18" value="Is A" style="edgeLabel;html=1;align=center;verticalAlign=middle;resizable=0;points=[];fontFamily=Helvetica;fontSize=11;fontColor=default;labelBackgroundColor=default;fontStyle=0" parent="E4u7SWDCAfa03cuSUIF7-6" vertex="1" connectable="0">
          <mxGeometry y="1" relative="1" as="geometry">
            <mxPoint as="offset" />
          </mxGeometry>
        </mxCell>
        <mxCell id="E4u7SWDCAfa03cuSUIF7-21" value="" style="endArrow=block;html=1;rounded=0;strokeColor=default;align=center;verticalAlign=middle;fontFamily=Helvetica;fontSize=11;fontColor=default;labelBackgroundColor=default;startArrow=none;startFill=0;endFill=0;endSize=10;fontStyle=0" parent="1" edge="1">
          <mxGeometry width="50" height="50" relative="1" as="geometry">
            <mxPoint x="190" y="55" as="sourcePoint" />
            <mxPoint x="220" y="55" as="targetPoint" />
          </mxGeometry>
        </mxCell>
        <mxCell id="E4u7SWDCAfa03cuSUIF7-22" value="" style="endArrow=none;html=1;rounded=0;strokeColor=default;align=center;verticalAlign=middle;fontFamily=Helvetica;fontSize=11;fontColor=default;labelBackgroundColor=default;jumpStyle=arc;fontStyle=0" parent="1" edge="1">
          <mxGeometry width="50" height="50" relative="1" as="geometry">
            <mxPoint x="156" y="128" as="sourcePoint" />
            <mxPoint x="156" y="128" as="targetPoint" />
          </mxGeometry>
        </mxCell>
        <mxCell id="E4u7SWDCAfa03cuSUIF7-26" value="" style="endArrow=open;html=1;rounded=0;strokeColor=default;align=center;verticalAlign=middle;fontFamily=Helvetica;fontSize=11;fontColor=default;labelBackgroundColor=default;exitX=1;exitY=0.5;exitDx=0;exitDy=0;endFill=0;startSize=6;endSize=8;fontStyle=0" parent="1" source="MVc7WZ1SkRlFC5I5kt_B-18" edge="1">
          <mxGeometry width="50" height="50" relative="1" as="geometry">
            <mxPoint x="960" y="260" as="sourcePoint" />
            <mxPoint x="570" y="43" as="targetPoint" />
          </mxGeometry>
        </mxCell>
        <mxCell id="E4u7SWDCAfa03cuSUIF7-27" value="Is Located At" style="edgeLabel;html=1;align=center;verticalAlign=middle;resizable=0;points=[];fontFamily=Helvetica;fontSize=11;fontColor=default;labelBackgroundColor=default;fontStyle=0" parent="E4u7SWDCAfa03cuSUIF7-26" vertex="1" connectable="0">
          <mxGeometry x="-0.0088" y="-1" relative="1" as="geometry">
            <mxPoint x="-4" y="-10" as="offset" />
          </mxGeometry>
        </mxCell>
        <mxCell id="4p38ijROad67MxJ117Um-7" value="" style="endArrow=diamondThin;html=1;rounded=0;strokeColor=default;align=center;verticalAlign=middle;fontFamily=Helvetica;fontSize=11;fontColor=default;labelBackgroundColor=default;exitX=0.5;exitY=0;exitDx=0;exitDy=0;entryX=0.5;entryY=1;entryDx=0;entryDy=0;endFill=1;startSize=6;endSize=10;fontStyle=0" parent="1" source="MVc7WZ1SkRlFC5I5kt_B-84" target="MVc7WZ1SkRlFC5I5kt_B-68" edge="1">
          <mxGeometry width="50" height="50" relative="1" as="geometry">
            <mxPoint x="180" y="787" as="sourcePoint" />
            <mxPoint x="490" y="707" as="targetPoint" />
          </mxGeometry>
        </mxCell>
        <mxCell id="9CcUUq_S5qFPirDYBM1m-74" value="Aggregates" style="edgeLabel;html=1;align=center;verticalAlign=middle;resizable=0;points=[];fontStyle=0" parent="4p38ijROad67MxJ117Um-7" vertex="1" connectable="0">
          <mxGeometry x="-0.3063" y="-1" relative="1" as="geometry">
            <mxPoint x="11" y="-2" as="offset" />
          </mxGeometry>
        </mxCell>
        <mxCell id="4p38ijROad67MxJ117Um-10" value="" style="endArrow=none;html=1;rounded=0;strokeColor=default;align=center;verticalAlign=middle;fontFamily=Helvetica;fontSize=11;fontColor=default;labelBackgroundColor=default;startArrow=diamondThin;startFill=1;startSize=10;jumpStyle=arc;entryX=0.256;entryY=0.2;entryDx=0;entryDy=0;entryPerimeter=0;fontStyle=0" parent="1" target="pfp9G8810t_1Ug5Y-fyW-57" edge="1">
          <mxGeometry width="50" height="50" relative="1" as="geometry">
            <mxPoint x="230" y="490" as="sourcePoint" />
            <mxPoint x="320" y="1030" as="targetPoint" />
            <Array as="points">
              <mxPoint x="260" y="490" />
              <mxPoint x="260" y="924" />
            </Array>
          </mxGeometry>
        </mxCell>
        <mxCell id="9CcUUq_S5qFPirDYBM1m-22" value="Borrower" style="swimlane;fontStyle=1;align=center;verticalAlign=top;childLayout=stackLayout;horizontal=1;startSize=26;horizontalStack=0;resizeParent=1;resizeParentMax=0;resizeLast=0;collapsible=1;marginBottom=0;whiteSpace=wrap;html=1;" parent="1" vertex="1">
          <mxGeometry x="-240" y="-20" width="160" height="110" as="geometry" />
        </mxCell>
        <mxCell id="9CcUUq_S5qFPirDYBM1m-23" value="&lt;font style=&quot;font-size: 11px;&quot;&gt;- borrowerName: String&lt;/font&gt;&lt;div&gt;&lt;font style=&quot;font-size: 11px;&quot;&gt;- legalEntityType: String&lt;/font&gt;&lt;/div&gt;&lt;div&gt;&lt;font style=&quot;font-size: 11px;&quot;&gt;- commentary: String&lt;/font&gt;&lt;/div&gt;" style="text;strokeColor=none;fillColor=none;align=left;verticalAlign=top;spacingLeft=4;spacingRight=4;overflow=hidden;rotatable=0;points=[[0,0.5],[1,0.5]];portConstraint=eastwest;whiteSpace=wrap;html=1;fontStyle=0" parent="9CcUUq_S5qFPirDYBM1m-22" vertex="1">
          <mxGeometry y="26" width="160" height="54" as="geometry" />
        </mxCell>
        <mxCell id="9CcUUq_S5qFPirDYBM1m-24" value="" style="line;strokeWidth=1;fillColor=none;align=left;verticalAlign=middle;spacingTop=-1;spacingLeft=3;spacingRight=3;rotatable=0;labelPosition=right;points=[];portConstraint=eastwest;strokeColor=inherit;fontStyle=0" parent="9CcUUq_S5qFPirDYBM1m-22" vertex="1">
          <mxGeometry y="80" width="160" height="30" as="geometry" />
        </mxCell>
        <mxCell id="9CcUUq_S5qFPirDYBM1m-25" value="" style="endArrow=open;html=1;rounded=0;exitX=0.5;exitY=0;exitDx=0;exitDy=0;entryX=0.669;entryY=0.001;entryDx=0;entryDy=0;entryPerimeter=0;jumpStyle=arc;endFill=0;endSize=8;fontStyle=0" parent="1" source="9CcUUq_S5qFPirDYBM1m-22" target="MVc7WZ1SkRlFC5I5kt_B-38" edge="1">
          <mxGeometry width="50" height="50" relative="1" as="geometry">
            <mxPoint x="-160" y="-40" as="sourcePoint" />
            <mxPoint x="678" y="-20" as="targetPoint" />
            <Array as="points">
              <mxPoint x="-160" y="-50" />
              <mxPoint x="677" y="-50" />
            </Array>
          </mxGeometry>
        </mxCell>
        <mxCell id="dOF6ThdAv8QO7OxwCsO3-80" value="Is Located At" style="edgeLabel;html=1;align=center;verticalAlign=middle;resizable=0;points=[];fontStyle=0" parent="9CcUUq_S5qFPirDYBM1m-25" vertex="1" connectable="0">
          <mxGeometry x="0.4256" y="-1" relative="1" as="geometry">
            <mxPoint x="1" y="7" as="offset" />
          </mxGeometry>
        </mxCell>
        <mxCell id="kF3sTlDbWWNvE3L73D8_-61" style="edgeStyle=none;shape=connector;rounded=0;orthogonalLoop=1;jettySize=auto;html=1;exitX=1.002;exitY=0.734;exitDx=0;exitDy=0;strokeColor=default;align=center;verticalAlign=middle;fontFamily=Helvetica;fontSize=11;fontColor=default;labelBackgroundColor=default;endArrow=none;exitPerimeter=0;fontStyle=0" parent="1" edge="1">
          <mxGeometry relative="1" as="geometry">
            <mxPoint x="188" y="16.840000000000003" as="targetPoint" />
            <mxPoint x="158" y="16.840000000000003" as="sourcePoint" />
          </mxGeometry>
        </mxCell>
        <mxCell id="kF3sTlDbWWNvE3L73D8_-62" value="Is A" style="edgeLabel;html=1;align=center;verticalAlign=middle;resizable=0;points=[];fontFamily=Helvetica;fontSize=11;fontColor=default;labelBackgroundColor=default;fontStyle=0" parent="kF3sTlDbWWNvE3L73D8_-61" vertex="1" connectable="0">
          <mxGeometry x="-0.0736" y="-2" relative="1" as="geometry">
            <mxPoint y="-11" as="offset" />
          </mxGeometry>
        </mxCell>
        <mxCell id="kF3sTlDbWWNvE3L73D8_-63" value="" style="endArrow=none;html=1;rounded=0;fontStyle=0" parent="1" edge="1">
          <mxGeometry width="50" height="50" relative="1" as="geometry">
            <mxPoint x="188" y="117" as="sourcePoint" />
            <mxPoint x="188" y="17" as="targetPoint" />
          </mxGeometry>
        </mxCell>
        <mxCell id="kF3sTlDbWWNvE3L73D8_-68" value="" style="endArrow=none;html=1;rounded=0;strokeColor=default;align=center;verticalAlign=middle;fontFamily=Helvetica;fontSize=11;fontColor=default;labelBackgroundColor=default;exitX=1;exitY=0.5;exitDx=0;exitDy=0;entryX=-0.003;entryY=0.395;entryDx=0;entryDy=0;startArrow=diamondThin;startFill=0;startSize=10;jumpStyle=arc;entryPerimeter=0;fontStyle=0" parent="1" source="MVc7WZ1SkRlFC5I5kt_B-48" target="MVc7WZ1SkRlFC5I5kt_B-45" edge="1">
          <mxGeometry width="50" height="50" relative="1" as="geometry">
            <mxPoint x="-190" y="520" as="sourcePoint" />
            <mxPoint x="60" y="520" as="targetPoint" />
          </mxGeometry>
        </mxCell>
        <mxCell id="dOF6ThdAv8QO7OxwCsO3-81" value="Has A" style="edgeLabel;html=1;align=center;verticalAlign=middle;resizable=0;points=[];fontStyle=0" parent="kF3sTlDbWWNvE3L73D8_-68" vertex="1" connectable="0">
          <mxGeometry x="0.0834" relative="1" as="geometry">
            <mxPoint x="1" y="-9" as="offset" />
          </mxGeometry>
        </mxCell>
        <mxCell id="kF3sTlDbWWNvE3L73D8_-69" value="" style="endArrow=diamondThin;html=1;rounded=0;exitX=1;exitY=0.132;exitDx=0;exitDy=0;exitPerimeter=0;endFill=1;endSize=10;fontStyle=0" parent="1" source="MVc7WZ1SkRlFC5I5kt_B-71" edge="1">
          <mxGeometry width="50" height="50" relative="1" as="geometry">
            <mxPoint x="-190" y="670" as="sourcePoint" />
            <mxPoint x="69" y="474" as="targetPoint" />
            <Array as="points">
              <mxPoint x="-180" y="542" />
              <mxPoint x="-180" y="474" />
            </Array>
          </mxGeometry>
        </mxCell>
        <mxCell id="dOF6ThdAv8QO7OxwCsO3-83" value="Is Secured By" style="edgeLabel;html=1;align=center;verticalAlign=middle;resizable=0;points=[];fontStyle=0" parent="kF3sTlDbWWNvE3L73D8_-69" vertex="1" connectable="0">
          <mxGeometry x="0.2216" y="3" relative="1" as="geometry">
            <mxPoint as="offset" />
          </mxGeometry>
        </mxCell>
        <mxCell id="kF3sTlDbWWNvE3L73D8_-70" value="" style="endArrow=diamondThin;html=1;rounded=0;exitX=1.002;exitY=0.096;exitDx=0;exitDy=0;exitPerimeter=0;endFill=1;startSize=6;endSize=10;fontStyle=0" parent="1" source="MVc7WZ1SkRlFC5I5kt_B-65" edge="1">
          <mxGeometry width="50" height="50" relative="1" as="geometry">
            <mxPoint x="-170" y="820" as="sourcePoint" />
            <mxPoint x="70" y="494" as="targetPoint" />
            <Array as="points">
              <mxPoint x="-160" y="749" />
              <mxPoint x="-160" y="494" />
            </Array>
          </mxGeometry>
        </mxCell>
        <mxCell id="dOF6ThdAv8QO7OxwCsO3-84" value="Is Described By" style="edgeLabel;html=1;align=center;verticalAlign=middle;resizable=0;points=[];fontStyle=0" parent="kF3sTlDbWWNvE3L73D8_-70" vertex="1" connectable="0">
          <mxGeometry x="0.531" relative="1" as="geometry">
            <mxPoint as="offset" />
          </mxGeometry>
        </mxCell>
        <mxCell id="kF3sTlDbWWNvE3L73D8_-72" value="" style="endArrow=diamondThin;html=1;rounded=0;exitX=0.624;exitY=-0.001;exitDx=0;exitDy=0;exitPerimeter=0;endFill=1;endSize=10;fontStyle=0" parent="1" source="MVc7WZ1SkRlFC5I5kt_B-59" edge="1">
          <mxGeometry width="50" height="50" relative="1" as="geometry">
            <mxPoint x="-40" y="510" as="sourcePoint" />
            <mxPoint x="70" y="510" as="targetPoint" />
            <Array as="points">
              <mxPoint x="-40" y="510" />
            </Array>
          </mxGeometry>
        </mxCell>
        <mxCell id="dOF6ThdAv8QO7OxwCsO3-86" value="Has" style="edgeLabel;html=1;align=center;verticalAlign=middle;resizable=0;points=[];fontStyle=0" parent="kF3sTlDbWWNvE3L73D8_-72" vertex="1" connectable="0">
          <mxGeometry x="0.1966" y="2" relative="1" as="geometry">
            <mxPoint y="-2" as="offset" />
          </mxGeometry>
        </mxCell>
        <mxCell id="kF3sTlDbWWNvE3L73D8_-73" value="" style="endArrow=diamondThin;html=1;rounded=0;exitX=1.004;exitY=0.077;exitDx=0;exitDy=0;exitPerimeter=0;endSize=10;endFill=1;fontStyle=0" parent="1" source="MVc7WZ1SkRlFC5I5kt_B-135" edge="1">
          <mxGeometry width="50" height="50" relative="1" as="geometry">
            <mxPoint x="20" y="870" as="sourcePoint" />
            <mxPoint x="80" y="520" as="targetPoint" />
            <Array as="points">
              <mxPoint x="40" y="802" />
              <mxPoint x="40" y="560" />
              <mxPoint x="80" y="560" />
            </Array>
          </mxGeometry>
        </mxCell>
        <mxCell id="dOF6ThdAv8QO7OxwCsO3-82" value="Contains&lt;div&gt;A&lt;/div&gt;" style="edgeLabel;html=1;align=center;verticalAlign=middle;resizable=0;points=[];fontStyle=0" parent="kF3sTlDbWWNvE3L73D8_-73" vertex="1" connectable="0">
          <mxGeometry x="-0.1047" relative="1" as="geometry">
            <mxPoint x="10" y="13" as="offset" />
          </mxGeometry>
        </mxCell>
        <mxCell id="kF3sTlDbWWNvE3L73D8_-74" value="" style="endArrow=diamondThin;html=1;rounded=0;exitX=0.5;exitY=0;exitDx=0;exitDy=0;endFill=1;endSize=10;entryX=0.5;entryY=1;entryDx=0;entryDy=0;fontStyle=0" parent="1" source="MVc7WZ1SkRlFC5I5kt_B-68" target="MVc7WZ1SkRlFC5I5kt_B-44" edge="1">
          <mxGeometry width="50" height="50" relative="1" as="geometry">
            <mxPoint x="90" y="580" as="sourcePoint" />
            <mxPoint x="150" y="530" as="targetPoint" />
          </mxGeometry>
        </mxCell>
        <mxCell id="dOF6ThdAv8QO7OxwCsO3-87" value="Has" style="edgeLabel;html=1;align=center;verticalAlign=middle;resizable=0;points=[];fontStyle=0" parent="kF3sTlDbWWNvE3L73D8_-74" vertex="1" connectable="0">
          <mxGeometry x="-0.0926" y="-3" relative="1" as="geometry">
            <mxPoint as="offset" />
          </mxGeometry>
        </mxCell>
        <mxCell id="kF3sTlDbWWNvE3L73D8_-76" value="" style="endArrow=none;html=1;rounded=0;entryX=0.001;entryY=0.097;entryDx=0;entryDy=0;entryPerimeter=0;exitX=0.75;exitY=0;exitDx=0;exitDy=0;startArrow=open;startFill=0;startSize=8;fontStyle=0" parent="1" source="MVc7WZ1SkRlFC5I5kt_B-38" target="MVc7WZ1SkRlFC5I5kt_B-72" edge="1">
          <mxGeometry width="50" height="50" relative="1" as="geometry">
            <mxPoint x="-380" y="-60" as="sourcePoint" />
            <mxPoint x="-400" y="532" as="targetPoint" />
            <Array as="points">
              <mxPoint x="690" y="-60" />
              <mxPoint x="-370" y="-60" />
              <mxPoint x="-370" y="556" />
            </Array>
          </mxGeometry>
        </mxCell>
        <mxCell id="kF3sTlDbWWNvE3L73D8_-111" value="Is&lt;div&gt;Located&lt;/div&gt;&lt;div&gt;At&lt;/div&gt;" style="edgeLabel;html=1;align=center;verticalAlign=middle;resizable=0;points=[];fontStyle=0" parent="kF3sTlDbWWNvE3L73D8_-76" vertex="1" connectable="0">
          <mxGeometry x="0.5989" y="3" relative="1" as="geometry">
            <mxPoint as="offset" />
          </mxGeometry>
        </mxCell>
        <mxCell id="kF3sTlDbWWNvE3L73D8_-94" value="" style="endArrow=diamondThin;html=1;rounded=0;exitX=0.5;exitY=0;exitDx=0;exitDy=0;jumpStyle=arc;entryX=-0.004;entryY=1.004;entryDx=0;entryDy=0;entryPerimeter=0;endFill=0;endSize=10;fontStyle=0" parent="1" source="MVc7WZ1SkRlFC5I5kt_B-44" target="9CcUUq_S5qFPirDYBM1m-23" edge="1">
          <mxGeometry width="50" height="50" relative="1" as="geometry">
            <mxPoint x="-180" y="180" as="sourcePoint" />
            <mxPoint x="-130" y="90" as="targetPoint" />
            <Array as="points">
              <mxPoint x="150" y="390" />
              <mxPoint x="-330" y="390" />
              <mxPoint x="-330" y="60" />
            </Array>
          </mxGeometry>
        </mxCell>
        <mxCell id="kF3sTlDbWWNvE3L73D8_-95" value="Borrows A" style="edgeLabel;html=1;align=center;verticalAlign=middle;resizable=0;points=[];fontStyle=0" parent="kF3sTlDbWWNvE3L73D8_-94" vertex="1" connectable="0">
          <mxGeometry x="0.8021" y="-4" relative="1" as="geometry">
            <mxPoint x="297" y="318" as="offset" />
          </mxGeometry>
        </mxCell>
        <mxCell id="z0n3_UW_qCKlOOFNhD-T-5" value="JournalEntryProcessor" style="swimlane;fontStyle=1;align=center;verticalAlign=top;childLayout=stackLayout;horizontal=1;startSize=26;horizontalStack=0;resizeParent=1;resizeParentMax=0;resizeLast=0;collapsible=1;marginBottom=0;whiteSpace=wrap;html=1;" parent="1" vertex="1">
          <mxGeometry x="330" y="375" width="240" height="130" as="geometry" />
        </mxCell>
        <mxCell id="z0n3_UW_qCKlOOFNhD-T-6" value="&lt;div style=&quot;padding: 0px; margin: 0px;&quot;&gt;- report: String&lt;/div&gt;" style="text;strokeColor=none;fillColor=none;align=left;verticalAlign=top;spacingLeft=4;spacingRight=4;overflow=hidden;rotatable=0;points=[[0,0.5],[1,0.5]];portConstraint=eastwest;whiteSpace=wrap;html=1;spacing=0;fontSize=9;fontStyle=0" parent="z0n3_UW_qCKlOOFNhD-T-5" vertex="1">
          <mxGeometry y="26" width="240" height="24" as="geometry" />
        </mxCell>
        <mxCell id="z0n3_UW_qCKlOOFNhD-T-7" value="" style="line;strokeWidth=1;fillColor=none;align=left;verticalAlign=middle;spacingTop=-1;spacingLeft=3;spacingRight=3;rotatable=0;labelPosition=right;points=[];portConstraint=eastwest;strokeColor=inherit;fontStyle=0" parent="z0n3_UW_qCKlOOFNhD-T-5" vertex="1">
          <mxGeometry y="50" width="240" height="8" as="geometry" />
        </mxCell>
        <mxCell id="z0n3_UW_qCKlOOFNhD-T-8" value="&lt;span style=&quot;text-align: center;&quot;&gt;+ generateReport(selections: List&amp;lt;String&amp;gt;): String&lt;/span&gt;&lt;div&gt;&lt;span style=&quot;text-align: center;&quot;&gt;- parseEntryData(entryData: String): String&lt;/span&gt;&lt;/div&gt;&lt;div&gt;&lt;div&gt;+ closePeriod(periodID: Integer): String&lt;/div&gt;&lt;div&gt;- finalizePeriod(periodID: Integer): Void&lt;/div&gt;&lt;div&gt;- formatTransmissionData(data: String): String&lt;/div&gt;&lt;/div&gt;" style="text;strokeColor=none;fillColor=none;align=left;verticalAlign=top;spacingLeft=4;spacingRight=4;overflow=hidden;rotatable=0;points=[[0,0.5],[1,0.5]];portConstraint=eastwest;whiteSpace=wrap;html=1;fontSize=10;spacing=0;fontStyle=0" parent="z0n3_UW_qCKlOOFNhD-T-5" vertex="1">
          <mxGeometry y="58" width="240" height="72" as="geometry" />
        </mxCell>
        <mxCell id="z0n3_UW_qCKlOOFNhD-T-9" value="DatabaseAccess" style="swimlane;fontStyle=1;align=center;verticalAlign=top;childLayout=stackLayout;horizontal=1;startSize=26;horizontalStack=0;resizeParent=1;resizeParentMax=0;resizeLast=0;collapsible=1;marginBottom=0;whiteSpace=wrap;html=1;" parent="1" vertex="1">
          <mxGeometry x="330" y="617.5" width="240" height="230" as="geometry" />
        </mxCell>
        <mxCell id="z0n3_UW_qCKlOOFNhD-T-10" value="&lt;div style=&quot;padding: 0px; margin: 0px;&quot;&gt;&lt;div&gt;&lt;div style=&quot;&quot;&gt;&lt;font style=&quot;font-size: 11px;&quot;&gt;- dBURL: String&lt;/font&gt;&lt;/div&gt;&lt;div style=&quot;&quot;&gt;&lt;font style=&quot;font-size: 11px;&quot;&gt;- cnnctTimeOut: Double&lt;/font&gt;&lt;/div&gt;&lt;/div&gt;&lt;/div&gt;" style="text;strokeColor=none;fillColor=none;align=left;verticalAlign=top;spacingLeft=4;spacingRight=4;overflow=hidden;rotatable=0;points=[[0,0.5],[1,0.5]];portConstraint=eastwest;whiteSpace=wrap;html=1;spacing=0;fontSize=9;fontStyle=0" parent="z0n3_UW_qCKlOOFNhD-T-9" vertex="1">
          <mxGeometry y="26" width="240" height="44" as="geometry" />
        </mxCell>
        <mxCell id="z0n3_UW_qCKlOOFNhD-T-11" value="" style="line;strokeWidth=1;fillColor=none;align=left;verticalAlign=middle;spacingTop=-1;spacingLeft=3;spacingRight=3;rotatable=0;labelPosition=right;points=[];portConstraint=eastwest;strokeColor=inherit;fontStyle=0" parent="z0n3_UW_qCKlOOFNhD-T-9" vertex="1">
          <mxGeometry y="70" width="240" height="8" as="geometry" />
        </mxCell>
        <mxCell id="z0n3_UW_qCKlOOFNhD-T-12" value="&lt;div style=&quot;&quot;&gt;+ reqJE(selections: List&amp;lt;String&amp;gt;): String&lt;/div&gt;&lt;div style=&quot;&quot;&gt;- frmtEntryReq(selections: List&amp;lt;String&amp;gt;): String&lt;/div&gt;&lt;div style=&quot;&quot;&gt;+ reqLoan(loanID: Integer): String&lt;/div&gt;&lt;div style=&quot;&quot;&gt;- frmtLoanReq(loanID:Integer): String&lt;/div&gt;&lt;div style=&quot;&quot;&gt;+ updateLoan(loan: Loan): String&lt;/div&gt;&lt;div style=&quot;&quot;&gt;- frmtLoanUpdate(loan: Loan): String&lt;/div&gt;&lt;div style=&quot;&quot;&gt;+ reqDashboardData(request: String): String&lt;/div&gt;&lt;div style=&quot;&quot;&gt;- formatDashboardRequest(request: String): String&lt;/div&gt;&lt;div style=&quot;&quot;&gt;+ reqUserID(userName: String): String&lt;/div&gt;&lt;div style=&quot;&quot;&gt;- formatUserRequest(request: String): String&lt;/div&gt;&lt;div style=&quot;&quot;&gt;+ reqCF(selections: List&amp;lt;String&amp;gt;): String&lt;/div&gt;&lt;div style=&quot;&quot;&gt;- frmtCFReq(selections: List&amp;lt;String&amp;gt;): String&lt;/div&gt;" style="text;strokeColor=none;fillColor=none;align=left;verticalAlign=top;spacingLeft=4;spacingRight=4;overflow=hidden;rotatable=0;points=[[0,0.5],[1,0.5]];portConstraint=eastwest;whiteSpace=wrap;html=1;fontSize=10;spacing=0;fontStyle=0" parent="z0n3_UW_qCKlOOFNhD-T-9" vertex="1">
          <mxGeometry y="78" width="240" height="152" as="geometry" />
        </mxCell>
        <mxCell id="z0n3_UW_qCKlOOFNhD-T-18" value="JournalEntryFactory" style="swimlane;fontStyle=1;align=center;verticalAlign=top;childLayout=stackLayout;horizontal=1;startSize=26;horizontalStack=0;resizeParent=1;resizeParentMax=0;resizeLast=0;collapsible=1;marginBottom=0;whiteSpace=wrap;html=1;" parent="1" vertex="1">
          <mxGeometry x="596" y="375" width="240" height="100" as="geometry" />
        </mxCell>
        <mxCell id="z0n3_UW_qCKlOOFNhD-T-19" value="&lt;div style=&quot;padding: 0px; margin: 0px;&quot;&gt;&lt;div style=&quot;&quot;&gt;&lt;br&gt;&lt;/div&gt;&lt;/div&gt;" style="text;strokeColor=none;fillColor=none;align=left;verticalAlign=top;spacingLeft=4;spacingRight=4;overflow=hidden;rotatable=0;points=[[0,0.5],[1,0.5]];portConstraint=eastwest;whiteSpace=wrap;html=1;spacing=0;fontSize=9;fontStyle=0" parent="z0n3_UW_qCKlOOFNhD-T-18" vertex="1">
          <mxGeometry y="26" width="240" height="24" as="geometry" />
        </mxCell>
        <mxCell id="z0n3_UW_qCKlOOFNhD-T-20" value="" style="line;strokeWidth=1;fillColor=none;align=left;verticalAlign=middle;spacingTop=-1;spacingLeft=3;spacingRight=3;rotatable=0;labelPosition=right;points=[];portConstraint=eastwest;strokeColor=inherit;fontStyle=0" parent="z0n3_UW_qCKlOOFNhD-T-18" vertex="1">
          <mxGeometry y="50" width="240" height="8" as="geometry" />
        </mxCell>
        <mxCell id="z0n3_UW_qCKlOOFNhD-T-21" value="&lt;div style=&quot;&quot;&gt;+ createJE(entryData: String): JournalEntry&lt;/div&gt;" style="text;strokeColor=none;fillColor=none;align=left;verticalAlign=top;spacingLeft=4;spacingRight=4;overflow=hidden;rotatable=0;points=[[0,0.5],[1,0.5]];portConstraint=eastwest;whiteSpace=wrap;html=1;fontSize=10;spacing=0;fontStyle=0" parent="z0n3_UW_qCKlOOFNhD-T-18" vertex="1">
          <mxGeometry y="58" width="240" height="42" as="geometry" />
        </mxCell>
        <mxCell id="z0n3_UW_qCKlOOFNhD-T-25" value="ReportSysGateway" style="swimlane;fontStyle=1;align=center;verticalAlign=top;childLayout=stackLayout;horizontal=1;startSize=26;horizontalStack=0;resizeParent=1;resizeParentMax=0;resizeLast=0;collapsible=1;marginBottom=0;whiteSpace=wrap;html=1;" parent="1" vertex="1">
          <mxGeometry x="860" y="375" width="240" height="170" as="geometry" />
        </mxCell>
        <mxCell id="z0n3_UW_qCKlOOFNhD-T-26" value="&lt;div style=&quot;padding: 0px; margin: 0px;&quot;&gt;&lt;div style=&quot;&quot;&gt;&lt;span style=&quot;font-size: 11px;&quot;&gt;- reportSysURL: String&lt;/span&gt;&lt;div style=&quot;font-size: 11px;&quot;&gt;- cnnctTimeOut: Double&lt;/div&gt;&lt;/div&gt;&lt;/div&gt;" style="text;strokeColor=none;fillColor=none;align=left;verticalAlign=top;spacingLeft=4;spacingRight=4;overflow=hidden;rotatable=0;points=[[0,0.5],[1,0.5]];portConstraint=eastwest;whiteSpace=wrap;html=1;spacing=0;fontSize=9;fontStyle=0" parent="z0n3_UW_qCKlOOFNhD-T-25" vertex="1">
          <mxGeometry y="26" width="240" height="34" as="geometry" />
        </mxCell>
        <mxCell id="z0n3_UW_qCKlOOFNhD-T-27" value="" style="line;strokeWidth=1;fillColor=none;align=left;verticalAlign=middle;spacingTop=-1;spacingLeft=3;spacingRight=3;rotatable=0;labelPosition=right;points=[];portConstraint=eastwest;strokeColor=inherit;fontStyle=0" parent="z0n3_UW_qCKlOOFNhD-T-25" vertex="1">
          <mxGeometry y="60" width="240" height="8" as="geometry" />
        </mxCell>
        <mxCell id="z0n3_UW_qCKlOOFNhD-T-28" value="&lt;div style=&quot;&quot;&gt;+ generateAccReport(jeList: list&amp;lt;JournalEntry&amp;gt;): String&lt;/div&gt;&lt;div style=&quot;&quot;&gt;- formatAccReq(jeList: list&amp;lt;JournalEntry): String&lt;/div&gt;&lt;div style=&quot;&quot;&gt;+ generateDashboard(parsedData: String): String&lt;/div&gt;&lt;div style=&quot;&quot;&gt;- formatRprtRequest(parsedData: String): String&lt;/div&gt;&lt;div style=&quot;&quot;&gt;+ generateTreasReport(parsedData: String): String&lt;/div&gt;&lt;div style=&quot;&quot;&gt;- formatTreasReq(parsedData: String): String&lt;/div&gt;" style="text;strokeColor=none;fillColor=none;align=left;verticalAlign=top;spacingLeft=4;spacingRight=4;overflow=hidden;rotatable=0;points=[[0,0.5],[1,0.5]];portConstraint=eastwest;whiteSpace=wrap;html=1;fontSize=10;spacing=0;fontStyle=0" parent="z0n3_UW_qCKlOOFNhD-T-25" vertex="1">
          <mxGeometry y="68" width="240" height="102" as="geometry" />
        </mxCell>
        <mxCell id="z0n3_UW_qCKlOOFNhD-T-32" value="InvoiceProcessor" style="swimlane;fontStyle=1;align=center;verticalAlign=top;childLayout=stackLayout;horizontal=1;startSize=26;horizontalStack=0;resizeParent=1;resizeParentMax=0;resizeLast=0;collapsible=1;marginBottom=0;whiteSpace=wrap;html=1;" parent="1" vertex="1">
          <mxGeometry x="750" y="830" width="240" height="180" as="geometry" />
        </mxCell>
        <mxCell id="z0n3_UW_qCKlOOFNhD-T-33" value="&lt;div style=&quot;padding: 0px; margin: 0px;&quot;&gt;&lt;div style=&quot;&quot;&gt;&lt;div&gt;&lt;span style=&quot;font-size: 11px; background-color: transparent; color: light-dark(rgb(0, 0, 0), rgb(255, 255, 255));&quot;&gt;- selections: List&amp;lt;String&amp;gt;&lt;/span&gt;&lt;br&gt;&lt;/div&gt;&lt;div&gt;&lt;span style=&quot;font-size: 11px; background-color: transparent; color: light-dark(rgb(0, 0, 0), rgb(255, 255, 255));&quot;&gt;- loans: List&amp;lt;Loan&amp;gt;&lt;/span&gt;&lt;/div&gt;&lt;div&gt;&lt;span style=&quot;font-size: 11px; background-color: transparent; color: light-dark(rgb(0, 0, 0), rgb(255, 255, 255));&quot;&gt;- invoiceList: List&amp;lt;Invoice&amp;gt;&lt;/span&gt;&lt;/div&gt;&lt;div&gt;&lt;span style=&quot;font-size: 11px; background-color: transparent; color: light-dark(rgb(0, 0, 0), rgb(255, 255, 255));&quot;&gt;- loan: Loan&lt;/span&gt;&lt;/div&gt;&lt;div&gt;&lt;br style=&quot;font-size: 11px;&quot;&gt;&lt;/div&gt;&lt;/div&gt;&lt;/div&gt;" style="text;strokeColor=none;fillColor=none;align=left;verticalAlign=top;spacingLeft=4;spacingRight=4;overflow=hidden;rotatable=0;points=[[0,0.5],[1,0.5]];portConstraint=eastwest;whiteSpace=wrap;html=1;spacing=0;fontSize=9;fontStyle=0" parent="z0n3_UW_qCKlOOFNhD-T-32" vertex="1">
          <mxGeometry y="26" width="240" height="64" as="geometry" />
        </mxCell>
        <mxCell id="z0n3_UW_qCKlOOFNhD-T-34" value="" style="line;strokeWidth=1;fillColor=none;align=left;verticalAlign=middle;spacingTop=-1;spacingLeft=3;spacingRight=3;rotatable=0;labelPosition=right;points=[];portConstraint=eastwest;strokeColor=inherit;fontStyle=0" parent="z0n3_UW_qCKlOOFNhD-T-32" vertex="1">
          <mxGeometry y="90" width="240" height="8" as="geometry" />
        </mxCell>
        <mxCell id="z0n3_UW_qCKlOOFNhD-T-35" value="&lt;div style=&quot;&quot;&gt;+ generateInvoice(selection: List&amp;lt;String&amp;gt;): List&amp;lt;String&amp;gt;&lt;/div&gt;&lt;div style=&quot;&quot;&gt;- parseLoanData(loanData: String): String&lt;/div&gt;&lt;div style=&quot;&quot;&gt;- generateInvoice(loan: Loan, selections: list&amp;lt;String&amp;gt;): String&lt;/div&gt;&lt;div style=&quot;&quot;&gt;+ finalizeInvoices(message: String): String&lt;/div&gt;&lt;div style=&quot;&quot;&gt;&lt;br&gt;&lt;/div&gt;" style="text;strokeColor=none;fillColor=none;align=left;verticalAlign=top;spacingLeft=4;spacingRight=4;overflow=hidden;rotatable=0;points=[[0,0.5],[1,0.5]];portConstraint=eastwest;whiteSpace=wrap;html=1;fontSize=10;spacing=0;fontStyle=0" parent="z0n3_UW_qCKlOOFNhD-T-32" vertex="1">
          <mxGeometry y="98" width="240" height="82" as="geometry" />
        </mxCell>
        <mxCell id="z0n3_UW_qCKlOOFNhD-T-36" value="LoanFactory" style="swimlane;fontStyle=1;align=center;verticalAlign=top;childLayout=stackLayout;horizontal=1;startSize=26;horizontalStack=0;resizeParent=1;resizeParentMax=0;resizeLast=0;collapsible=1;marginBottom=0;whiteSpace=wrap;html=1;" parent="1" vertex="1">
          <mxGeometry x="750" y="1060" width="240" height="100" as="geometry" />
        </mxCell>
        <mxCell id="z0n3_UW_qCKlOOFNhD-T-37" value="&lt;div style=&quot;padding: 0px; margin: 0px;&quot;&gt;&lt;div style=&quot;&quot;&gt;&lt;br&gt;&lt;/div&gt;&lt;/div&gt;" style="text;strokeColor=none;fillColor=none;align=left;verticalAlign=top;spacingLeft=4;spacingRight=4;overflow=hidden;rotatable=0;points=[[0,0.5],[1,0.5]];portConstraint=eastwest;whiteSpace=wrap;html=1;spacing=0;fontSize=9;fontStyle=0" parent="z0n3_UW_qCKlOOFNhD-T-36" vertex="1">
          <mxGeometry y="26" width="240" height="24" as="geometry" />
        </mxCell>
        <mxCell id="z0n3_UW_qCKlOOFNhD-T-38" value="" style="line;strokeWidth=1;fillColor=none;align=left;verticalAlign=middle;spacingTop=-1;spacingLeft=3;spacingRight=3;rotatable=0;labelPosition=right;points=[];portConstraint=eastwest;strokeColor=inherit;fontStyle=0" parent="z0n3_UW_qCKlOOFNhD-T-36" vertex="1">
          <mxGeometry y="50" width="240" height="8" as="geometry" />
        </mxCell>
        <mxCell id="z0n3_UW_qCKlOOFNhD-T-39" value="&lt;div style=&quot;&quot;&gt;+ createLoan(loanData: String): Loan&lt;/div&gt;" style="text;strokeColor=none;fillColor=none;align=left;verticalAlign=top;spacingLeft=4;spacingRight=4;overflow=hidden;rotatable=0;points=[[0,0.5],[1,0.5]];portConstraint=eastwest;whiteSpace=wrap;html=1;fontSize=10;spacing=0;fontStyle=0" parent="z0n3_UW_qCKlOOFNhD-T-36" vertex="1">
          <mxGeometry y="58" width="240" height="42" as="geometry" />
        </mxCell>
        <mxCell id="z0n3_UW_qCKlOOFNhD-T-40" value="EmailSystemGateway" style="swimlane;fontStyle=1;align=center;verticalAlign=top;childLayout=stackLayout;horizontal=1;startSize=26;horizontalStack=0;resizeParent=1;resizeParentMax=0;resizeLast=0;collapsible=1;marginBottom=0;whiteSpace=wrap;html=1;" parent="1" vertex="1">
          <mxGeometry x="1113" y="830" width="240" height="180" as="geometry" />
        </mxCell>
        <mxCell id="z0n3_UW_qCKlOOFNhD-T-41" value="&lt;div style=&quot;padding: 0px; margin: 0px;&quot;&gt;&lt;div style=&quot;&quot;&gt;&lt;div&gt;&lt;div style=&quot;font-size: 11px;&quot;&gt;- emailSysAddress: String&lt;/div&gt;&lt;div style=&quot;font-size: 11px;&quot;&gt;- cnnctTimeOut: Double&lt;/div&gt;&lt;/div&gt;&lt;/div&gt;&lt;/div&gt;" style="text;strokeColor=none;fillColor=none;align=left;verticalAlign=top;spacingLeft=4;spacingRight=4;overflow=hidden;rotatable=0;points=[[0,0.5],[1,0.5]];portConstraint=eastwest;whiteSpace=wrap;html=1;spacing=0;fontSize=9;fontStyle=0" parent="z0n3_UW_qCKlOOFNhD-T-40" vertex="1">
          <mxGeometry y="26" width="240" height="44" as="geometry" />
        </mxCell>
        <mxCell id="z0n3_UW_qCKlOOFNhD-T-42" value="" style="line;strokeWidth=1;fillColor=none;align=left;verticalAlign=middle;spacingTop=-1;spacingLeft=3;spacingRight=3;rotatable=0;labelPosition=right;points=[];portConstraint=eastwest;strokeColor=inherit;fontStyle=0" parent="z0n3_UW_qCKlOOFNhD-T-40" vertex="1">
          <mxGeometry y="70" width="240" height="8" as="geometry" />
        </mxCell>
        <mxCell id="z0n3_UW_qCKlOOFNhD-T-43" value="&lt;div style=&quot;&quot;&gt;+ emailInvoices( invoiceList: List&amp;lt;Invoice&amp;gt;, selections: List&amp;lt;String&amp;gt;, message: String): String&lt;/div&gt;&lt;div style=&quot;&quot;&gt;- formatInvMsg(invoiceList: List&amp;lt;invoice&amp;gt;, list&amp;lt;selections&amp;gt;, message)&lt;/div&gt;&lt;div style=&quot;&quot;&gt;+ emailCommentary(link: String, commentary: String, users: list&amp;lt;String&amp;gt;): String&lt;/div&gt;&lt;div style=&quot;&quot;&gt;- formatCommMsg&lt;span style=&quot;background-color: transparent; color: light-dark(rgb(0, 0, 0), rgb(255, 255, 255));&quot;&gt;(link: String, commentary: String, users: list&amp;lt;String&amp;gt;): String&lt;/span&gt;&lt;/div&gt;" style="text;strokeColor=none;fillColor=none;align=left;verticalAlign=top;spacingLeft=4;spacingRight=4;overflow=hidden;rotatable=0;points=[[0,0.5],[1,0.5]];portConstraint=eastwest;whiteSpace=wrap;html=1;fontSize=10;spacing=0;fontStyle=0" parent="z0n3_UW_qCKlOOFNhD-T-40" vertex="1">
          <mxGeometry y="78" width="240" height="102" as="geometry" />
        </mxCell>
        <mxCell id="z0n3_UW_qCKlOOFNhD-T-45" value="DashboardManager" style="swimlane;fontStyle=1;align=center;verticalAlign=top;childLayout=stackLayout;horizontal=1;startSize=26;horizontalStack=0;resizeParent=1;resizeParentMax=0;resizeLast=0;collapsible=1;marginBottom=0;whiteSpace=wrap;html=1;" parent="1" vertex="1">
          <mxGeometry x="870" y="571" width="240" height="250" as="geometry" />
        </mxCell>
        <mxCell id="z0n3_UW_qCKlOOFNhD-T-46" value="&lt;div style=&quot;padding: 0px; margin: 0px;&quot;&gt;&lt;div style=&quot;&quot;&gt;&lt;font style=&quot;font-size: 11px;&quot;&gt;- viewLayout: List&amp;lt;String&amp;gt;&lt;/font&gt;&lt;/div&gt;&lt;div style=&quot;&quot;&gt;&lt;font style=&quot;font-size: 11px;&quot;&gt;- selections: List&amp;lt;String&amp;gt;&lt;/font&gt;&lt;/div&gt;&lt;div style=&quot;&quot;&gt;&lt;font style=&quot;font-size: 11px;&quot;&gt;- userMap: Map&amp;lt;String, Integer&amp;gt;&lt;/font&gt;&lt;/div&gt;&lt;div style=&quot;&quot;&gt;&lt;font style=&quot;font-size: 11px;&quot;&gt;- userIds: List&amp;lt;Integer&amp;gt;&lt;/font&gt;&lt;/div&gt;&lt;div style=&quot;&quot;&gt;&lt;font style=&quot;font-size: 11px;&quot;&gt;- loan: Loan&lt;/font&gt;&lt;/div&gt;&lt;/div&gt;" style="text;strokeColor=none;fillColor=none;align=left;verticalAlign=top;spacingLeft=4;spacingRight=4;overflow=hidden;rotatable=0;points=[[0,0.5],[1,0.5]];portConstraint=eastwest;whiteSpace=wrap;html=1;spacing=0;fontSize=9;fontStyle=0" parent="z0n3_UW_qCKlOOFNhD-T-45" vertex="1">
          <mxGeometry y="26" width="240" height="74" as="geometry" />
        </mxCell>
        <mxCell id="z0n3_UW_qCKlOOFNhD-T-47" value="" style="line;strokeWidth=1;fillColor=none;align=left;verticalAlign=middle;spacingTop=-1;spacingLeft=3;spacingRight=3;rotatable=0;labelPosition=right;points=[];portConstraint=eastwest;strokeColor=inherit;fontStyle=0" parent="z0n3_UW_qCKlOOFNhD-T-45" vertex="1">
          <mxGeometry y="100" width="240" height="8" as="geometry" />
        </mxCell>
        <mxCell id="z0n3_UW_qCKlOOFNhD-T-48" value="&lt;div style=&quot;&quot;&gt;+ updateDashboard(selections: List&amp;lt;String&amp;gt;): String&lt;/div&gt;&lt;div style=&quot;&quot;&gt;- createDBRequest(selections: List&amp;lt;String&amp;gt;): String&lt;/div&gt;&lt;div style=&quot;&quot;&gt;- parse(dashboardData: String): String&lt;/div&gt;&lt;div style=&quot;&quot;&gt;+ lookupUser(userName: String): Map&amp;lt;userName: String, userID: Integer&amp;gt;&lt;/div&gt;&lt;div style=&quot;&quot;&gt;- createMap(data: String):&amp;nbsp;&lt;span style=&quot;background-color: transparent; color: light-dark(rgb(0, 0, 0), rgb(255, 255, 255));&quot;&gt;Map&amp;lt;userName: String, userID: Integer&amp;gt;&lt;/span&gt;&lt;/div&gt;&lt;div style=&quot;&quot;&gt;&lt;span style=&quot;background-color: transparent; color: light-dark(rgb(0, 0, 0), rgb(255, 255, 255));&quot;&gt;+ userTag(users: List&amp;lt;String&amp;gt;)&lt;/span&gt;&lt;/div&gt;&lt;div style=&quot;&quot;&gt;&lt;span style=&quot;background-color: transparent; color: light-dark(rgb(0, 0, 0), rgb(255, 255, 255));&quot;&gt;+ saveCommentary(commentary: String): String&lt;/span&gt;&lt;/div&gt;&lt;div style=&quot;&quot;&gt;&lt;span style=&quot;background-color: transparent; color: light-dark(rgb(0, 0, 0), rgb(255, 255, 255));&quot;&gt;+ processCommentary(commentary: String): null&lt;/span&gt;&lt;/div&gt;&lt;div style=&quot;&quot;&gt;&lt;br&gt;&lt;/div&gt;" style="text;strokeColor=none;fillColor=none;align=left;verticalAlign=top;spacingLeft=4;spacingRight=4;overflow=hidden;rotatable=0;points=[[0,0.5],[1,0.5]];portConstraint=eastwest;whiteSpace=wrap;html=1;fontSize=10;spacing=0;fontStyle=0" parent="z0n3_UW_qCKlOOFNhD-T-45" vertex="1">
          <mxGeometry y="108" width="240" height="142" as="geometry" />
        </mxCell>
        <mxCell id="dOF6ThdAv8QO7OxwCsO3-2" value="TreasuryReportProcessor" style="swimlane;fontStyle=1;align=center;verticalAlign=top;childLayout=stackLayout;horizontal=1;startSize=26;horizontalStack=0;resizeParent=1;resizeParentMax=0;resizeLast=0;collapsible=1;marginBottom=0;whiteSpace=wrap;html=1;" parent="1" vertex="1">
          <mxGeometry x="1160" y="611" width="240" height="150" as="geometry" />
        </mxCell>
        <mxCell id="dOF6ThdAv8QO7OxwCsO3-3" value="&lt;div style=&quot;padding: 0px; margin: 0px;&quot;&gt;&lt;div&gt;&lt;div style=&quot;&quot;&gt;&lt;font style=&quot;font-size: 11px;&quot;&gt;- formattedReportData: String&lt;/font&gt;&lt;/div&gt;&lt;/div&gt;&lt;/div&gt;" style="text;strokeColor=none;fillColor=none;align=left;verticalAlign=top;spacingLeft=4;spacingRight=4;overflow=hidden;rotatable=0;points=[[0,0.5],[1,0.5]];portConstraint=eastwest;whiteSpace=wrap;html=1;spacing=0;fontSize=9;fontStyle=0" parent="dOF6ThdAv8QO7OxwCsO3-2" vertex="1">
          <mxGeometry y="26" width="240" height="44" as="geometry" />
        </mxCell>
        <mxCell id="dOF6ThdAv8QO7OxwCsO3-4" value="" style="line;strokeWidth=1;fillColor=none;align=left;verticalAlign=middle;spacingTop=-1;spacingLeft=3;spacingRight=3;rotatable=0;labelPosition=right;points=[];portConstraint=eastwest;strokeColor=inherit;fontStyle=0" parent="dOF6ThdAv8QO7OxwCsO3-2" vertex="1">
          <mxGeometry y="70" width="240" height="8" as="geometry" />
        </mxCell>
        <mxCell id="dOF6ThdAv8QO7OxwCsO3-5" value="&lt;div style=&quot;&quot;&gt;+ generateActivity(List&amp;lt;String&amp;gt;): String&lt;/div&gt;&lt;div style=&quot;&quot;&gt;+ transmitToBank(): String&lt;/div&gt;&lt;div style=&quot;&quot;&gt;- parseCFData(data: String): String&lt;/div&gt;&lt;div style=&quot;&quot;&gt;- transformCFReport(formattedReportData: String): String&lt;/div&gt;" style="text;strokeColor=none;fillColor=none;align=left;verticalAlign=top;spacingLeft=4;spacingRight=4;overflow=hidden;rotatable=0;points=[[0,0.5],[1,0.5]];portConstraint=eastwest;whiteSpace=wrap;html=1;fontSize=10;spacing=0;fontStyle=0" parent="dOF6ThdAv8QO7OxwCsO3-2" vertex="1">
          <mxGeometry y="78" width="240" height="72" as="geometry" />
        </mxCell>
        <mxCell id="dOF6ThdAv8QO7OxwCsO3-7" value="BankSoftwareGateway" style="swimlane;fontStyle=1;align=center;verticalAlign=top;childLayout=stackLayout;horizontal=1;startSize=26;horizontalStack=0;resizeParent=1;resizeParentMax=0;resizeLast=0;collapsible=1;marginBottom=0;whiteSpace=wrap;html=1;" parent="1" vertex="1">
          <mxGeometry x="1160" y="360" width="240" height="160" as="geometry" />
        </mxCell>
        <mxCell id="dOF6ThdAv8QO7OxwCsO3-8" value="&lt;div style=&quot;padding: 0px; margin: 0px;&quot;&gt;&lt;div&gt;&lt;div style=&quot;&quot;&gt;&lt;font style=&quot;font-size: 11px;&quot;&gt;- bankSysURL: String&lt;div&gt;- cnnctTimeOut: Double&lt;/div&gt;&lt;/font&gt;&lt;/div&gt;&lt;div style=&quot;&quot;&gt;&lt;font style=&quot;font-size: 11px;&quot;&gt;- formattedTransmission: String&lt;/font&gt;&lt;/div&gt;&lt;/div&gt;&lt;/div&gt;" style="text;strokeColor=none;fillColor=none;align=left;verticalAlign=top;spacingLeft=4;spacingRight=4;overflow=hidden;rotatable=0;points=[[0,0.5],[1,0.5]];portConstraint=eastwest;whiteSpace=wrap;html=1;spacing=0;fontSize=9;fontStyle=0" parent="dOF6ThdAv8QO7OxwCsO3-7" vertex="1">
          <mxGeometry y="26" width="240" height="54" as="geometry" />
        </mxCell>
        <mxCell id="dOF6ThdAv8QO7OxwCsO3-9" value="" style="line;strokeWidth=1;fillColor=none;align=left;verticalAlign=middle;spacingTop=-1;spacingLeft=3;spacingRight=3;rotatable=0;labelPosition=right;points=[];portConstraint=eastwest;strokeColor=inherit;fontStyle=0" parent="dOF6ThdAv8QO7OxwCsO3-7" vertex="1">
          <mxGeometry y="80" width="240" height="8" as="geometry" />
        </mxCell>
        <mxCell id="dOF6ThdAv8QO7OxwCsO3-10" value="&lt;div style=&quot;&quot;&gt;+ transmitBankingData(data: String): String&lt;/div&gt;&lt;div style=&quot;&quot;&gt;- formatTransmissionData(data: String): String&lt;/div&gt;" style="text;strokeColor=none;fillColor=none;align=left;verticalAlign=top;spacingLeft=4;spacingRight=4;overflow=hidden;rotatable=0;points=[[0,0.5],[1,0.5]];portConstraint=eastwest;whiteSpace=wrap;html=1;fontSize=10;spacing=0;fontStyle=0" parent="dOF6ThdAv8QO7OxwCsO3-7" vertex="1">
          <mxGeometry y="88" width="240" height="72" as="geometry" />
        </mxCell>
        <mxCell id="dOF6ThdAv8QO7OxwCsO3-11" value="CorpAcctSystGateway" style="swimlane;fontStyle=1;align=center;verticalAlign=top;childLayout=stackLayout;horizontal=1;startSize=26;horizontalStack=0;resizeParent=1;resizeParentMax=0;resizeLast=0;collapsible=1;marginBottom=0;whiteSpace=wrap;html=1;" parent="1" vertex="1">
          <mxGeometry x="860" y="166" width="240" height="150" as="geometry" />
        </mxCell>
        <mxCell id="dOF6ThdAv8QO7OxwCsO3-12" value="&lt;div style=&quot;padding: 0px; margin: 0px;&quot;&gt;&lt;div&gt;&lt;span style=&quot;font-size: 11px;&quot;&gt;- accSysURL: String&lt;/span&gt;&lt;div style=&quot;font-size: 11px;&quot;&gt;- cnnctTimeOut: Double&lt;/div&gt;&lt;/div&gt;&lt;/div&gt;" style="text;strokeColor=none;fillColor=none;align=left;verticalAlign=top;spacingLeft=4;spacingRight=4;overflow=hidden;rotatable=0;points=[[0,0.5],[1,0.5]];portConstraint=eastwest;whiteSpace=wrap;html=1;spacing=0;fontSize=9;fontStyle=0" parent="dOF6ThdAv8QO7OxwCsO3-11" vertex="1">
          <mxGeometry y="26" width="240" height="44" as="geometry" />
        </mxCell>
        <mxCell id="dOF6ThdAv8QO7OxwCsO3-13" value="" style="line;strokeWidth=1;fillColor=none;align=left;verticalAlign=middle;spacingTop=-1;spacingLeft=3;spacingRight=3;rotatable=0;labelPosition=right;points=[];portConstraint=eastwest;strokeColor=inherit;fontStyle=0" parent="dOF6ThdAv8QO7OxwCsO3-11" vertex="1">
          <mxGeometry y="70" width="240" height="8" as="geometry" />
        </mxCell>
        <mxCell id="dOF6ThdAv8QO7OxwCsO3-14" value="&lt;div&gt;+ transmitAccData(data: String): String&lt;/div&gt;&lt;div&gt;- formatTransmissionData(data: String): String&lt;/div&gt;" style="text;strokeColor=none;fillColor=none;align=left;verticalAlign=top;spacingLeft=4;spacingRight=4;overflow=hidden;rotatable=0;points=[[0,0.5],[1,0.5]];portConstraint=eastwest;whiteSpace=wrap;html=1;fontSize=10;spacing=0;fontStyle=0" parent="dOF6ThdAv8QO7OxwCsO3-11" vertex="1">
          <mxGeometry y="78" width="240" height="72" as="geometry" />
        </mxCell>
        <mxCell id="dOF6ThdAv8QO7OxwCsO3-17" value="" style="endArrow=open;html=1;rounded=0;dashed=1;dashPattern=8 8;entryX=0.48;entryY=-0.001;entryDx=0;entryDy=0;entryPerimeter=0;endFill=0;endSize=8;fontStyle=0" parent="1" target="z0n3_UW_qCKlOOFNhD-T-9" edge="1">
          <mxGeometry width="50" height="50" relative="1" as="geometry">
            <mxPoint x="445" y="506" as="sourcePoint" />
            <mxPoint x="445" y="625" as="targetPoint" />
          </mxGeometry>
        </mxCell>
        <mxCell id="dOF6ThdAv8QO7OxwCsO3-18" value="&lt;span&gt;Accesses&lt;/span&gt;&lt;div&gt;&lt;span&gt;Data Via&lt;/span&gt;&lt;/div&gt;" style="edgeLabel;html=1;align=center;verticalAlign=middle;resizable=0;points=[];fontStyle=0" parent="dOF6ThdAv8QO7OxwCsO3-17" vertex="1" connectable="0">
          <mxGeometry x="-0.1419" y="3" relative="1" as="geometry">
            <mxPoint x="27" y="-4" as="offset" />
          </mxGeometry>
        </mxCell>
        <mxCell id="dOF6ThdAv8QO7OxwCsO3-22" value="" style="endArrow=open;html=1;rounded=0;exitX=1.008;exitY=0.926;exitDx=0;exitDy=0;entryX=0.227;entryY=1.054;entryDx=0;entryDy=0;entryPerimeter=0;dashed=1;dashPattern=8 8;startSize=6;endSize=8;endFill=0;exitPerimeter=0;fontStyle=0" parent="1" source="z0n3_UW_qCKlOOFNhD-T-8" target="z0n3_UW_qCKlOOFNhD-T-21" edge="1">
          <mxGeometry width="50" height="50" relative="1" as="geometry">
            <mxPoint x="455.4000000000001" y="575.864" as="sourcePoint" />
            <mxPoint x="455" y="635" as="targetPoint" />
            <Array as="points">
              <mxPoint x="650" y="500" />
            </Array>
          </mxGeometry>
        </mxCell>
        <mxCell id="dOF6ThdAv8QO7OxwCsO3-23" value="&lt;span&gt;Creates&lt;/span&gt;&lt;div&gt;&lt;span style=&quot;background-color: light-dark(#ffffff, var(--ge-dark-color, #121212)); color: light-dark(rgb(0, 0, 0), rgb(255, 255, 255));&quot;&gt;&lt;span&gt;JEs Via&lt;/span&gt;&lt;/span&gt;&lt;/div&gt;" style="edgeLabel;html=1;align=center;verticalAlign=middle;resizable=0;points=[];fontStyle=0" parent="dOF6ThdAv8QO7OxwCsO3-22" vertex="1" connectable="0">
          <mxGeometry x="-0.1419" y="3" relative="1" as="geometry">
            <mxPoint x="-16" y="22" as="offset" />
          </mxGeometry>
        </mxCell>
        <mxCell id="dOF6ThdAv8QO7OxwCsO3-25" value="" style="endArrow=open;html=1;rounded=0;dashed=1;dashPattern=8 8;endFill=0;endSize=8;fontStyle=0" parent="1" edge="1">
          <mxGeometry width="50" height="50" relative="1" as="geometry">
            <mxPoint x="730" y="480" as="sourcePoint" />
            <mxPoint x="730" y="550" as="targetPoint" />
          </mxGeometry>
        </mxCell>
        <mxCell id="dOF6ThdAv8QO7OxwCsO3-26" value="&lt;span&gt;Creates&lt;/span&gt;" style="edgeLabel;html=1;align=center;verticalAlign=middle;resizable=0;points=[];fontStyle=0" parent="dOF6ThdAv8QO7OxwCsO3-25" vertex="1" connectable="0">
          <mxGeometry x="-0.1419" y="3" relative="1" as="geometry">
            <mxPoint x="7" y="-10" as="offset" />
          </mxGeometry>
        </mxCell>
        <mxCell id="dOF6ThdAv8QO7OxwCsO3-27" value="" style="endArrow=diamondThin;html=1;rounded=0;endFill=1;endSize=10;exitX=0.5;exitY=0;exitDx=0;exitDy=0;entryX=0.5;entryY=1;entryDx=0;entryDy=0;fontStyle=0" parent="1" source="MVc7WZ1SkRlFC5I5kt_B-117" target="MVc7WZ1SkRlFC5I5kt_B-90" edge="1">
          <mxGeometry width="50" height="50" relative="1" as="geometry">
            <mxPoint x="730" y="661" as="sourcePoint" />
            <mxPoint x="730" y="641" as="targetPoint" />
          </mxGeometry>
        </mxCell>
        <mxCell id="dOF6ThdAv8QO7OxwCsO3-28" value="&lt;span&gt;Contains&lt;/span&gt;" style="edgeLabel;html=1;align=center;verticalAlign=middle;resizable=0;points=[];fontStyle=0" parent="dOF6ThdAv8QO7OxwCsO3-27" vertex="1" connectable="0">
          <mxGeometry x="-0.2428" y="-1" relative="1" as="geometry">
            <mxPoint x="29" as="offset" />
          </mxGeometry>
        </mxCell>
        <mxCell id="dOF6ThdAv8QO7OxwCsO3-29" value="" style="endArrow=none;html=1;rounded=0;strokeColor=default;align=center;verticalAlign=middle;fontFamily=Helvetica;fontSize=11;fontColor=default;labelBackgroundColor=default;startArrow=diamondThin;startFill=1;startSize=10;jumpStyle=arc;exitX=1;exitY=0.818;exitDx=0;exitDy=0;exitPerimeter=0;fontStyle=0" parent="1" source="MVc7WZ1SkRlFC5I5kt_B-45" edge="1">
          <mxGeometry width="50" height="50" relative="1" as="geometry">
            <mxPoint x="230" y="470" as="sourcePoint" />
            <mxPoint x="651" y="603" as="targetPoint" />
            <Array as="points">
              <mxPoint x="270" y="472" />
              <mxPoint x="270" y="603" />
            </Array>
          </mxGeometry>
        </mxCell>
        <mxCell id="dOF6ThdAv8QO7OxwCsO3-30" value="&lt;span&gt;Contains&lt;/span&gt;" style="edgeLabel;html=1;align=center;verticalAlign=middle;resizable=0;points=[];fontStyle=0" parent="1" vertex="1" connectable="0">
          <mxGeometry x="379.99999999999955" y="595" as="geometry">
            <mxPoint x="-5" y="-2" as="offset" />
          </mxGeometry>
        </mxCell>
        <mxCell id="dOF6ThdAv8QO7OxwCsO3-31" value="" style="endArrow=open;html=1;rounded=0;dashed=1;dashPattern=8 8;entryX=1;entryY=0.5;entryDx=0;entryDy=0;exitX=0.972;exitY=1.011;exitDx=0;exitDy=0;exitPerimeter=0;endFill=0;endSize=8;fontStyle=0" parent="1" source="z0n3_UW_qCKlOOFNhD-T-21" target="MVc7WZ1SkRlFC5I5kt_B-118" edge="1">
          <mxGeometry width="50" height="50" relative="1" as="geometry">
            <mxPoint x="790" y="475" as="sourcePoint" />
            <mxPoint x="790" y="545" as="targetPoint" />
            <Array as="points">
              <mxPoint x="830" y="600" />
              <mxPoint x="830" y="715" />
            </Array>
          </mxGeometry>
        </mxCell>
        <mxCell id="dOF6ThdAv8QO7OxwCsO3-32" value="Creates" style="edgeLabel;html=1;align=center;verticalAlign=middle;resizable=0;points=[];fontStyle=0" parent="dOF6ThdAv8QO7OxwCsO3-31" vertex="1" connectable="0">
          <mxGeometry x="-0.1419" y="3" relative="1" as="geometry">
            <mxPoint x="-13" y="-74" as="offset" />
          </mxGeometry>
        </mxCell>
        <mxCell id="dOF6ThdAv8QO7OxwCsO3-33" value="" style="endArrow=open;html=1;rounded=0;exitX=0.75;exitY=0;exitDx=0;exitDy=0;entryX=0.25;entryY=0;entryDx=0;entryDy=0;dashed=1;dashPattern=8 8;endFill=0;endSize=8;fontStyle=0" parent="1" source="z0n3_UW_qCKlOOFNhD-T-5" target="z0n3_UW_qCKlOOFNhD-T-25" edge="1">
          <mxGeometry width="50" height="50" relative="1" as="geometry">
            <mxPoint x="530" y="390" as="sourcePoint" />
            <mxPoint x="580" y="340" as="targetPoint" />
            <Array as="points">
              <mxPoint x="510" y="360" />
              <mxPoint x="920" y="360" />
            </Array>
          </mxGeometry>
        </mxCell>
        <mxCell id="dOF6ThdAv8QO7OxwCsO3-34" value="&lt;span&gt;Generates Reports Via&lt;/span&gt;" style="edgeLabel;html=1;align=center;verticalAlign=middle;resizable=0;points=[];fontStyle=0" parent="dOF6ThdAv8QO7OxwCsO3-33" vertex="1" connectable="0">
          <mxGeometry x="0.0432" y="2" relative="1" as="geometry">
            <mxPoint x="6" y="-8" as="offset" />
          </mxGeometry>
        </mxCell>
        <mxCell id="dOF6ThdAv8QO7OxwCsO3-35" value="" style="endArrow=open;html=1;rounded=0;exitX=-0.006;exitY=0.099;exitDx=0;exitDy=0;exitPerimeter=0;dashed=1;dashPattern=8 8;entryX=0.796;entryY=1.003;entryDx=0;entryDy=0;entryPerimeter=0;endFill=0;endSize=10;fontStyle=0" parent="1" source="z0n3_UW_qCKlOOFNhD-T-33" target="z0n3_UW_qCKlOOFNhD-T-12" edge="1">
          <mxGeometry width="50" height="50" relative="1" as="geometry">
            <mxPoint x="630.4000000000001" y="796.364" as="sourcePoint" />
            <mxPoint x="630" y="855.5" as="targetPoint" />
            <Array as="points">
              <mxPoint x="521" y="862" />
            </Array>
          </mxGeometry>
        </mxCell>
        <mxCell id="dOF6ThdAv8QO7OxwCsO3-36" value="&lt;span&gt;Accesses&lt;/span&gt;&lt;div&gt;&lt;span&gt;Data Via&lt;/span&gt;&lt;/div&gt;" style="edgeLabel;html=1;align=center;verticalAlign=middle;resizable=0;points=[];fontStyle=0" parent="dOF6ThdAv8QO7OxwCsO3-35" vertex="1" connectable="0">
          <mxGeometry x="-0.1419" y="3" relative="1" as="geometry">
            <mxPoint x="15" y="-18" as="offset" />
          </mxGeometry>
        </mxCell>
        <mxCell id="dOF6ThdAv8QO7OxwCsO3-39" value="" style="endArrow=open;html=1;rounded=0;dashed=1;dashPattern=8 8;entryX=0.5;entryY=0;entryDx=0;entryDy=0;exitX=0.5;exitY=1.012;exitDx=0;exitDy=0;exitPerimeter=0;endFill=0;endSize=8;fontStyle=0" parent="1" source="z0n3_UW_qCKlOOFNhD-T-35" target="z0n3_UW_qCKlOOFNhD-T-36" edge="1">
          <mxGeometry width="50" height="50" relative="1" as="geometry">
            <mxPoint x="740" y="490" as="sourcePoint" />
            <mxPoint x="740" y="560" as="targetPoint" />
          </mxGeometry>
        </mxCell>
        <mxCell id="dOF6ThdAv8QO7OxwCsO3-40" value="Creates Loans&lt;br&gt;Via" style="edgeLabel;html=1;align=center;verticalAlign=middle;resizable=0;points=[];fontStyle=0" parent="dOF6ThdAv8QO7OxwCsO3-39" vertex="1" connectable="0">
          <mxGeometry x="-0.1419" y="3" relative="1" as="geometry">
            <mxPoint x="37" y="-2" as="offset" />
          </mxGeometry>
        </mxCell>
        <mxCell id="dOF6ThdAv8QO7OxwCsO3-50" value="" style="endArrow=open;html=1;rounded=0;exitX=1;exitY=0.5;exitDx=0;exitDy=0;dashed=1;dashPattern=12 12;entryX=0;entryY=0.726;entryDx=0;entryDy=0;entryPerimeter=0;endSize=8;endFill=0;fontStyle=0" parent="1" edge="1">
          <mxGeometry width="50" height="50" relative="1" as="geometry">
            <mxPoint x="999" y="870.06" as="sourcePoint" />
            <mxPoint x="1110" y="870.0039999999999" as="targetPoint" />
          </mxGeometry>
        </mxCell>
        <mxCell id="dOF6ThdAv8QO7OxwCsO3-52" value="&lt;span&gt;Sends&lt;/span&gt;&lt;div&gt;&lt;span&gt;Invoices&lt;/span&gt;&lt;/div&gt;&lt;div&gt;&lt;span&gt;Via&lt;/span&gt;&lt;/div&gt;" style="edgeLabel;html=1;align=center;verticalAlign=middle;resizable=0;points=[];fontStyle=0" parent="dOF6ThdAv8QO7OxwCsO3-50" vertex="1" connectable="0">
          <mxGeometry x="0.0171" relative="1" as="geometry">
            <mxPoint x="-6" y="24" as="offset" />
          </mxGeometry>
        </mxCell>
        <mxCell id="dOF6ThdAv8QO7OxwCsO3-53" value="" style="endArrow=open;html=1;rounded=0;exitX=0.5;exitY=0;exitDx=0;exitDy=0;entryX=0.525;entryY=0.986;entryDx=0;entryDy=0;dashed=1;dashPattern=8 8;entryPerimeter=0;endFill=0;endSize=8;fontStyle=0" parent="1" source="z0n3_UW_qCKlOOFNhD-T-5" target="dOF6ThdAv8QO7OxwCsO3-14" edge="1">
          <mxGeometry width="50" height="50" relative="1" as="geometry">
            <mxPoint x="520" y="385" as="sourcePoint" />
            <mxPoint x="930" y="385" as="targetPoint" />
            <Array as="points">
              <mxPoint x="450" y="340" />
              <mxPoint x="986" y="340" />
            </Array>
          </mxGeometry>
        </mxCell>
        <mxCell id="dOF6ThdAv8QO7OxwCsO3-54" value="&lt;span&gt;Sends Period Close Data Via&lt;/span&gt;" style="edgeLabel;html=1;align=center;verticalAlign=middle;resizable=0;points=[];fontStyle=0" parent="dOF6ThdAv8QO7OxwCsO3-53" vertex="1" connectable="0">
          <mxGeometry x="0.0432" y="2" relative="1" as="geometry">
            <mxPoint x="44" y="-13" as="offset" />
          </mxGeometry>
        </mxCell>
        <mxCell id="dOF6ThdAv8QO7OxwCsO3-56" value="" style="endArrow=open;html=1;rounded=0;exitX=0.003;exitY=0.912;exitDx=0;exitDy=0;exitPerimeter=0;dashed=1;dashPattern=8 8;endFill=0;endSize=10;fontStyle=0" parent="1" edge="1">
          <mxGeometry width="50" height="50" relative="1" as="geometry">
            <mxPoint x="870.7199999999998" y="792.5040000000004" as="sourcePoint" />
            <mxPoint x="571" y="793" as="targetPoint" />
          </mxGeometry>
        </mxCell>
        <mxCell id="dOF6ThdAv8QO7OxwCsO3-57" value="&lt;span&gt;Accesses Data Via&lt;/span&gt;" style="edgeLabel;html=1;align=center;verticalAlign=middle;resizable=0;points=[];fontStyle=0" parent="dOF6ThdAv8QO7OxwCsO3-56" vertex="1" connectable="0">
          <mxGeometry x="0.0541" y="1" relative="1" as="geometry">
            <mxPoint x="3" y="-10" as="offset" />
          </mxGeometry>
        </mxCell>
        <mxCell id="dOF6ThdAv8QO7OxwCsO3-58" value="" style="endArrow=open;html=1;rounded=0;exitX=0.621;exitY=0.995;exitDx=0;exitDy=0;exitPerimeter=0;entryX=1;entryY=0.5;entryDx=0;entryDy=0;endFill=0;endSize=8;jumpStyle=arc;dashed=1;dashPattern=8 8;fontStyle=0" parent="1" source="z0n3_UW_qCKlOOFNhD-T-48" target="z0n3_UW_qCKlOOFNhD-T-37" edge="1">
          <mxGeometry width="50" height="50" relative="1" as="geometry">
            <mxPoint x="1040" y="1070" as="sourcePoint" />
            <mxPoint x="1090" y="1020" as="targetPoint" />
            <Array as="points">
              <mxPoint x="1020" y="1098" />
            </Array>
          </mxGeometry>
        </mxCell>
        <mxCell id="dOF6ThdAv8QO7OxwCsO3-59" value="Creates Loans&lt;br&gt;Via" style="edgeLabel;html=1;align=center;verticalAlign=middle;resizable=0;points=[];fontStyle=0" parent="dOF6ThdAv8QO7OxwCsO3-58" vertex="1" connectable="0">
          <mxGeometry x="-0.8612" y="1" relative="1" as="geometry">
            <mxPoint x="10" y="197" as="offset" />
          </mxGeometry>
        </mxCell>
        <mxCell id="dOF6ThdAv8QO7OxwCsO3-62" value="" style="endArrow=open;html=1;rounded=0;entryX=1.011;entryY=0.889;entryDx=0;entryDy=0;entryPerimeter=0;dashed=1;dashPattern=8 8;endSize=8;endFill=0;fontStyle=0" parent="1" target="z0n3_UW_qCKlOOFNhD-T-28" edge="1">
          <mxGeometry width="50" height="50" relative="1" as="geometry">
            <mxPoint x="1110" y="590" as="sourcePoint" />
            <mxPoint x="990" y="550" as="targetPoint" />
            <Array as="points">
              <mxPoint x="1120" y="590" />
              <mxPoint x="1120" y="534" />
            </Array>
          </mxGeometry>
        </mxCell>
        <mxCell id="dOF6ThdAv8QO7OxwCsO3-63" value="&lt;span&gt;Generates&lt;/span&gt;&lt;div&gt;&lt;span&gt;View&lt;/span&gt;&lt;/div&gt;&lt;div&gt;&lt;span&gt;Using&lt;/span&gt;&lt;/div&gt;" style="edgeLabel;html=1;align=center;verticalAlign=middle;resizable=0;points=[];fontStyle=0" parent="dOF6ThdAv8QO7OxwCsO3-62" vertex="1" connectable="0">
          <mxGeometry x="0.0811" y="-2" relative="1" as="geometry">
            <mxPoint x="27" y="18" as="offset" />
          </mxGeometry>
        </mxCell>
        <mxCell id="dOF6ThdAv8QO7OxwCsO3-64" value="" style="endArrow=open;html=1;rounded=0;dashed=1;dashPattern=8 8;exitX=0.161;exitY=1.016;exitDx=0;exitDy=0;exitPerimeter=0;endFill=0;endSize=8;jumpStyle=arc;entryX=0.5;entryY=1;entryDx=0;entryDy=0;fontStyle=0" parent="1" source="z0n3_UW_qCKlOOFNhD-T-35" target="MVc7WZ1SkRlFC5I5kt_B-77" edge="1">
          <mxGeometry width="50" height="50" relative="1" as="geometry">
            <mxPoint x="650" y="1040" as="sourcePoint" />
            <mxPoint x="640" y="1011" as="targetPoint" />
            <Array as="points">
              <mxPoint x="790" y="1050" />
              <mxPoint x="148" y="1050" />
            </Array>
          </mxGeometry>
        </mxCell>
        <mxCell id="dOF6ThdAv8QO7OxwCsO3-65" value="&lt;span&gt;Creates&lt;/span&gt;" style="edgeLabel;html=1;align=center;verticalAlign=middle;resizable=0;points=[];fontStyle=0" parent="dOF6ThdAv8QO7OxwCsO3-64" vertex="1" connectable="0">
          <mxGeometry x="-0.1419" y="3" relative="1" as="geometry">
            <mxPoint x="17" y="-13" as="offset" />
          </mxGeometry>
        </mxCell>
        <mxCell id="dOF6ThdAv8QO7OxwCsO3-69" value="" style="endArrow=open;html=1;rounded=0;entryX=0.149;entryY=-0.004;entryDx=0;entryDy=0;entryPerimeter=0;dashed=1;dashPattern=12 12;endFill=0;endSize=8;fontStyle=0" parent="1" target="z0n3_UW_qCKlOOFNhD-T-40" edge="1">
          <mxGeometry width="50" height="50" relative="1" as="geometry">
            <mxPoint x="1110" y="770" as="sourcePoint" />
            <mxPoint x="1190" y="780" as="targetPoint" />
            <Array as="points">
              <mxPoint x="1149" y="770" />
            </Array>
          </mxGeometry>
        </mxCell>
        <mxCell id="dOF6ThdAv8QO7OxwCsO3-70" value="&lt;span&gt;Sends&lt;/span&gt;&lt;div&gt;&lt;span&gt;Commentary&lt;/span&gt;&lt;/div&gt;&lt;div&gt;&lt;span&gt;Via&lt;/span&gt;&lt;/div&gt;" style="edgeLabel;html=1;align=center;verticalAlign=middle;resizable=0;points=[];fontStyle=0" parent="dOF6ThdAv8QO7OxwCsO3-69" vertex="1" connectable="0">
          <mxGeometry x="0.0849" relative="1" as="geometry">
            <mxPoint x="33" y="6" as="offset" />
          </mxGeometry>
        </mxCell>
        <mxCell id="dOF6ThdAv8QO7OxwCsO3-73" value="" style="endArrow=open;html=1;rounded=0;exitX=0.876;exitY=0.993;exitDx=0;exitDy=0;exitPerimeter=0;dashed=1;dashPattern=8 8;endFill=0;endSize=10;entryX=0.606;entryY=1.02;entryDx=0;entryDy=0;entryPerimeter=0;jumpStyle=arc;fontStyle=0" parent="1" source="dOF6ThdAv8QO7OxwCsO3-5" target="z0n3_UW_qCKlOOFNhD-T-12" edge="1">
          <mxGeometry width="50" height="50" relative="1" as="geometry">
            <mxPoint x="1359.7199999999998" y="1090.0040000000004" as="sourcePoint" />
            <mxPoint x="1060" y="1090.5" as="targetPoint" />
            <Array as="points">
              <mxPoint x="1370" y="1180" />
              <mxPoint x="475" y="1180" />
            </Array>
          </mxGeometry>
        </mxCell>
        <mxCell id="dOF6ThdAv8QO7OxwCsO3-74" value="&lt;span&gt;Accesses Data Via&lt;/span&gt;" style="edgeLabel;html=1;align=center;verticalAlign=middle;resizable=0;points=[];fontStyle=0" parent="dOF6ThdAv8QO7OxwCsO3-73" vertex="1" connectable="0">
          <mxGeometry x="0.0541" y="1" relative="1" as="geometry">
            <mxPoint x="357" y="-10" as="offset" />
          </mxGeometry>
        </mxCell>
        <mxCell id="dOF6ThdAv8QO7OxwCsO3-67" value="" style="endArrow=diamondThin;html=1;rounded=0;endFill=1;endSize=10;entryX=1;entryY=0.5;entryDx=0;entryDy=0;jumpStyle=arc;fontStyle=0" parent="1" target="dOF6ThdAv8QO7OxwCsO3-15" edge="1">
          <mxGeometry width="50" height="50" relative="1" as="geometry">
            <mxPoint x="530" y="950" as="sourcePoint" />
            <mxPoint x="160" y="530" as="targetPoint" />
            <Array as="points">
              <mxPoint x="250" y="950" />
              <mxPoint x="250" y="510" />
            </Array>
          </mxGeometry>
        </mxCell>
        <mxCell id="dOF6ThdAv8QO7OxwCsO3-68" value="&lt;span&gt;Contains&lt;/span&gt;" style="edgeLabel;html=1;align=center;verticalAlign=middle;resizable=0;points=[];fontStyle=0" parent="dOF6ThdAv8QO7OxwCsO3-67" vertex="1" connectable="0">
          <mxGeometry x="-0.7802" y="-2" relative="1" as="geometry">
            <mxPoint x="-19" y="-8" as="offset" />
          </mxGeometry>
        </mxCell>
        <mxCell id="dOF6ThdAv8QO7OxwCsO3-48" value="" style="endArrow=open;html=1;rounded=0;jumpStyle=arc;fontStyle=0;endFill=0;endSize=8;" parent="1" edge="1">
          <mxGeometry width="50" height="50" relative="1" as="geometry">
            <mxPoint x="750" y="970" as="sourcePoint" />
            <mxPoint x="228" y="910" as="targetPoint" />
            <Array as="points">
              <mxPoint x="700" y="970" />
              <mxPoint x="700" y="910" />
              <mxPoint x="520" y="910" />
              <mxPoint x="290" y="910" />
            </Array>
          </mxGeometry>
        </mxCell>
        <mxCell id="dOF6ThdAv8QO7OxwCsO3-49" value="Creates" style="edgeLabel;html=1;align=center;verticalAlign=middle;resizable=0;points=[];fontStyle=0" parent="dOF6ThdAv8QO7OxwCsO3-48" vertex="1" connectable="0">
          <mxGeometry x="0.0236" y="2" relative="1" as="geometry">
            <mxPoint x="87" y="-4" as="offset" />
          </mxGeometry>
        </mxCell>
        <mxCell id="dOF6ThdAv8QO7OxwCsO3-41" value="" style="endArrow=none;html=1;rounded=0;entryX=0;entryY=0.282;entryDx=0;entryDy=0;entryPerimeter=0;exitX=1;exitY=0.364;exitDx=0;exitDy=0;exitPerimeter=0;jumpStyle=arc;endFill=0;startArrow=open;startFill=0;endSize=6;startSize=8;fontStyle=0" parent="1" source="MVc7WZ1SkRlFC5I5kt_B-45" target="z0n3_UW_qCKlOOFNhD-T-33" edge="1">
          <mxGeometry width="50" height="50" relative="1" as="geometry">
            <mxPoint x="670" y="940" as="sourcePoint" />
            <mxPoint x="720" y="890" as="targetPoint" />
            <Array as="points">
              <mxPoint x="300" y="452" />
              <mxPoint x="300" y="874" />
            </Array>
          </mxGeometry>
        </mxCell>
        <mxCell id="dOF6ThdAv8QO7OxwCsO3-42" value="Generates Bills Using" style="edgeLabel;html=1;align=center;verticalAlign=middle;resizable=0;points=[];fontStyle=0" parent="dOF6ThdAv8QO7OxwCsO3-41" vertex="1" connectable="0">
          <mxGeometry x="0.1141" y="2" relative="1" as="geometry">
            <mxPoint x="67" y="-2" as="offset" />
          </mxGeometry>
        </mxCell>
        <mxCell id="dOF6ThdAv8QO7OxwCsO3-75" value="" style="endArrow=open;html=1;rounded=0;entryX=1;entryY=0.5;entryDx=0;entryDy=0;dashed=1;dashPattern=12 12;endFill=0;endSize=8;fontStyle=0" parent="1" edge="1">
          <mxGeometry width="50" height="50" relative="1" as="geometry">
            <mxPoint x="1230" y="609" as="sourcePoint" />
            <mxPoint x="1099.9999999999995" y="493" as="targetPoint" />
            <Array as="points">
              <mxPoint x="1230" y="540" />
              <mxPoint x="1150" y="539" />
              <mxPoint x="1150" y="493" />
            </Array>
          </mxGeometry>
        </mxCell>
        <mxCell id="dOF6ThdAv8QO7OxwCsO3-76" value="&lt;span&gt;Formats&lt;/span&gt;&lt;div&gt;&lt;span&gt;Report&lt;/span&gt;&lt;/div&gt;&lt;div&gt;&lt;span&gt;Via&lt;/span&gt;&lt;/div&gt;" style="edgeLabel;html=1;align=center;verticalAlign=middle;resizable=0;points=[];fontStyle=0" parent="dOF6ThdAv8QO7OxwCsO3-75" vertex="1" connectable="0">
          <mxGeometry x="0.0849" relative="1" as="geometry">
            <mxPoint x="78" y="33" as="offset" />
          </mxGeometry>
        </mxCell>
        <mxCell id="dOF6ThdAv8QO7OxwCsO3-77" value="" style="endArrow=open;html=1;rounded=0;entryX=0.665;entryY=0.991;entryDx=0;entryDy=0;entryPerimeter=0;endFill=0;endSize=8;dashed=1;dashPattern=8 8;fontStyle=0" parent="1" target="dOF6ThdAv8QO7OxwCsO3-10" edge="1">
          <mxGeometry width="50" height="50" relative="1" as="geometry">
            <mxPoint x="1320" y="610" as="sourcePoint" />
            <mxPoint x="1340" y="540" as="targetPoint" />
          </mxGeometry>
        </mxCell>
        <mxCell id="dOF6ThdAv8QO7OxwCsO3-78" value="&lt;span&gt;Transmits&lt;/span&gt;&lt;div&gt;&lt;span&gt;Forecast&lt;/span&gt;&lt;div&gt;&lt;span&gt;to Bank Via&lt;/span&gt;&lt;/div&gt;&lt;/div&gt;" style="edgeLabel;html=1;align=center;verticalAlign=middle;resizable=0;points=[];fontStyle=0" parent="dOF6ThdAv8QO7OxwCsO3-77" vertex="1" connectable="0">
          <mxGeometry x="-0.1322" relative="1" as="geometry">
            <mxPoint as="offset" />
          </mxGeometry>
        </mxCell>
        <mxCell id="dOF6ThdAv8QO7OxwCsO3-89" value="" style="endArrow=open;html=1;rounded=0;entryX=0.5;entryY=1;entryDx=0;entryDy=0;exitX=0.875;exitY=1;exitDx=0;exitDy=0;exitPerimeter=0;dashed=1;dashPattern=8 8;endFill=0;endSize=8;fontStyle=0;jumpStyle=arc;" parent="1" source="z0n3_UW_qCKlOOFNhD-T-48" target="MVc7WZ1SkRlFC5I5kt_B-105" edge="1">
          <mxGeometry width="50" height="50" relative="1" as="geometry">
            <mxPoint x="1090" y="1170" as="sourcePoint" />
            <mxPoint x="630" y="1100" as="targetPoint" />
            <Array as="points">
              <mxPoint x="1080" y="1170" />
              <mxPoint x="610" y="1170" />
            </Array>
          </mxGeometry>
        </mxCell>
        <mxCell id="dOF6ThdAv8QO7OxwCsO3-90" value="&lt;span&gt;Creates&lt;/span&gt;" style="edgeLabel;html=1;align=center;verticalAlign=middle;resizable=0;points=[];fontStyle=0" parent="dOF6ThdAv8QO7OxwCsO3-89" vertex="1" connectable="0">
          <mxGeometry x="-0.9622" y="-1" relative="1" as="geometry">
            <mxPoint x="-49" y="350" as="offset" />
          </mxGeometry>
        </mxCell>
        <mxCell id="pfp9G8810t_1Ug5Y-fyW-1" value="" style="endArrow=none;html=1;rounded=0;entryX=0;entryY=0.5;entryDx=0;entryDy=0;startArrow=diamondThin;startFill=0;endSize=8;startSize=10;" parent="1" edge="1">
          <mxGeometry width="50" height="50" relative="1" as="geometry">
            <mxPoint x="-80" y="8" as="sourcePoint" />
            <mxPoint x="-2" y="8" as="targetPoint" />
          </mxGeometry>
        </mxCell>
        <mxCell id="pfp9G8810t_1Ug5Y-fyW-2" value="Works At" style="edgeLabel;html=1;align=center;verticalAlign=middle;resizable=0;points=[];" parent="pfp9G8810t_1Ug5Y-fyW-1" vertex="1" connectable="0">
          <mxGeometry x="-0.3709" y="1" relative="1" as="geometry">
            <mxPoint x="16" y="-7" as="offset" />
          </mxGeometry>
        </mxCell>
        <mxCell id="pfp9G8810t_1Ug5Y-fyW-3" value="&lt;font style=&quot;font-size: 11px;&quot;&gt;1&lt;/font&gt;" style="text;html=1;align=center;verticalAlign=middle;resizable=0;points=[];autosize=1;strokeColor=none;fillColor=none;" parent="1" vertex="1">
          <mxGeometry x="-92" y="-15" width="30" height="30" as="geometry" />
        </mxCell>
        <mxCell id="pfp9G8810t_1Ug5Y-fyW-4" value="&lt;font style=&quot;font-size: 11px;&quot;&gt;*&lt;/font&gt;" style="text;html=1;align=center;verticalAlign=middle;resizable=0;points=[];autosize=1;strokeColor=none;fillColor=none;" parent="1" vertex="1">
          <mxGeometry x="-23" y="-11" width="30" height="30" as="geometry" />
        </mxCell>
        <mxCell id="pfp9G8810t_1Ug5Y-fyW-5" value="&lt;font style=&quot;font-size: 11px;&quot;&gt;1&lt;/font&gt;" style="text;html=1;align=center;verticalAlign=middle;resizable=0;points=[];autosize=1;strokeColor=none;fillColor=none;" parent="1" vertex="1">
          <mxGeometry x="-165" y="-45" width="30" height="30" as="geometry" />
        </mxCell>
        <mxCell id="pfp9G8810t_1Ug5Y-fyW-6" value="&lt;font style=&quot;font-size: 11px;&quot;&gt;1&lt;/font&gt;" style="text;html=1;align=center;verticalAlign=middle;resizable=0;points=[];autosize=1;strokeColor=none;fillColor=none;" parent="1" vertex="1">
          <mxGeometry x="650" y="-41" width="30" height="30" as="geometry" />
        </mxCell>
        <mxCell id="pfp9G8810t_1Ug5Y-fyW-7" value="&lt;font style=&quot;font-size: 11px;&quot;&gt;1&lt;/font&gt;" style="text;html=1;align=center;verticalAlign=middle;resizable=0;points=[];autosize=1;strokeColor=none;fillColor=none;" parent="1" vertex="1">
          <mxGeometry x="690" y="-45" width="30" height="30" as="geometry" />
        </mxCell>
        <mxCell id="pfp9G8810t_1Ug5Y-fyW-8" value="&lt;font style=&quot;font-size: 11px;&quot;&gt;*&lt;/font&gt;" style="text;html=1;align=center;verticalAlign=middle;resizable=0;points=[];autosize=1;strokeColor=none;fillColor=none;" parent="1" vertex="1">
          <mxGeometry x="374" y="19" width="30" height="30" as="geometry" />
        </mxCell>
        <mxCell id="pfp9G8810t_1Ug5Y-fyW-9" value="&lt;font style=&quot;font-size: 11px;&quot;&gt;1&lt;/font&gt;" style="text;html=1;align=center;verticalAlign=middle;resizable=0;points=[];autosize=1;strokeColor=none;fillColor=none;" parent="1" vertex="1">
          <mxGeometry x="535" y="20" width="30" height="30" as="geometry" />
        </mxCell>
        <mxCell id="pfp9G8810t_1Ug5Y-fyW-10" value="&lt;font style=&quot;font-size: 11px;&quot;&gt;1...*&lt;/font&gt;" style="text;html=1;align=center;verticalAlign=middle;resizable=0;points=[];autosize=1;strokeColor=none;fillColor=none;" parent="1" vertex="1">
          <mxGeometry x="144" y="380" width="40" height="30" as="geometry" />
        </mxCell>
        <mxCell id="pfp9G8810t_1Ug5Y-fyW-11" value="&lt;font style=&quot;font-size: 11px;&quot;&gt;1&lt;/font&gt;" style="text;html=1;align=center;verticalAlign=middle;resizable=0;points=[];autosize=1;strokeColor=none;fillColor=none;" parent="1" vertex="1">
          <mxGeometry x="-270" y="30" width="30" height="30" as="geometry" />
        </mxCell>
        <mxCell id="pfp9G8810t_1Ug5Y-fyW-12" value="&lt;font style=&quot;font-size: 11px;&quot;&gt;1&lt;/font&gt;" style="text;html=1;align=center;verticalAlign=middle;resizable=0;points=[];autosize=1;strokeColor=none;fillColor=none;" parent="1" vertex="1">
          <mxGeometry x="-374" y="532" width="30" height="30" as="geometry" />
        </mxCell>
        <mxCell id="pfp9G8810t_1Ug5Y-fyW-15" value="&lt;font style=&quot;font-size: 11px;&quot;&gt;*&lt;/font&gt;" style="text;html=1;align=center;verticalAlign=middle;resizable=0;points=[];autosize=1;strokeColor=none;fillColor=none;" parent="1" vertex="1">
          <mxGeometry x="44" y="430" width="30" height="30" as="geometry" />
        </mxCell>
        <mxCell id="pfp9G8810t_1Ug5Y-fyW-16" value="&lt;font style=&quot;font-size: 11px;&quot;&gt;1&lt;/font&gt;" style="text;html=1;align=center;verticalAlign=middle;resizable=0;points=[];autosize=1;strokeColor=none;fillColor=none;" parent="1" vertex="1">
          <mxGeometry x="44" y="450" width="30" height="30" as="geometry" />
        </mxCell>
        <mxCell id="pfp9G8810t_1Ug5Y-fyW-18" value="&lt;font style=&quot;font-size: 11px;&quot;&gt;1&lt;/font&gt;" style="text;html=1;align=center;verticalAlign=middle;resizable=0;points=[];autosize=1;strokeColor=none;fillColor=none;" parent="1" vertex="1">
          <mxGeometry x="49" y="470" width="30" height="30" as="geometry" />
        </mxCell>
        <mxCell id="pfp9G8810t_1Ug5Y-fyW-19" value="&lt;font style=&quot;font-size: 11px;&quot;&gt;1&lt;/font&gt;" style="text;html=1;align=center;verticalAlign=middle;resizable=0;points=[];autosize=1;strokeColor=none;fillColor=none;" parent="1" vertex="1">
          <mxGeometry x="49" y="487" width="30" height="30" as="geometry" />
        </mxCell>
        <mxCell id="pfp9G8810t_1Ug5Y-fyW-20" value="&lt;font style=&quot;font-size: 11px;&quot;&gt;1&lt;/font&gt;" style="text;html=1;align=center;verticalAlign=middle;resizable=0;points=[];autosize=1;strokeColor=none;fillColor=none;" parent="1" vertex="1">
          <mxGeometry x="-199" y="428" width="30" height="30" as="geometry" />
        </mxCell>
        <mxCell id="pfp9G8810t_1Ug5Y-fyW-21" value="&lt;font style=&quot;font-size: 11px;&quot;&gt;1...*&lt;/font&gt;" style="text;html=1;align=center;verticalAlign=middle;resizable=0;points=[];autosize=1;strokeColor=none;fillColor=none;" parent="1" vertex="1">
          <mxGeometry x="-199" y="541" width="40" height="30" as="geometry" />
        </mxCell>
        <mxCell id="pfp9G8810t_1Ug5Y-fyW-22" value="&lt;font style=&quot;font-size: 11px;&quot;&gt;*&lt;/font&gt;" style="text;html=1;align=center;verticalAlign=middle;resizable=0;points=[];autosize=1;strokeColor=none;fillColor=none;" parent="1" vertex="1">
          <mxGeometry x="-63" y="498" width="30" height="30" as="geometry" />
        </mxCell>
        <mxCell id="pfp9G8810t_1Ug5Y-fyW-24" value="&lt;font style=&quot;font-size: 11px;&quot;&gt;1&lt;/font&gt;" style="text;html=1;align=center;verticalAlign=middle;resizable=0;points=[];autosize=1;strokeColor=none;fillColor=none;" parent="1" vertex="1">
          <mxGeometry x="55" y="511" width="30" height="30" as="geometry" />
        </mxCell>
        <mxCell id="pfp9G8810t_1Ug5Y-fyW-25" value="&lt;font style=&quot;font-size: 11px;&quot;&gt;1...*&lt;/font&gt;" style="text;html=1;align=center;verticalAlign=middle;resizable=0;points=[];autosize=1;strokeColor=none;fillColor=none;" parent="1" vertex="1">
          <mxGeometry x="9" y="771" width="40" height="30" as="geometry" />
        </mxCell>
        <mxCell id="pfp9G8810t_1Ug5Y-fyW-26" value="&lt;font style=&quot;font-size: 11px;&quot;&gt;1&lt;/font&gt;" style="text;html=1;align=center;verticalAlign=middle;resizable=0;points=[];autosize=1;strokeColor=none;fillColor=none;" parent="1" vertex="1">
          <mxGeometry x="126" y="656" width="30" height="30" as="geometry" />
        </mxCell>
        <mxCell id="pfp9G8810t_1Ug5Y-fyW-27" value="&lt;font style=&quot;font-size: 11px;&quot;&gt;*&lt;/font&gt;" style="text;html=1;align=center;verticalAlign=middle;resizable=0;points=[];autosize=1;strokeColor=none;fillColor=none;" parent="1" vertex="1">
          <mxGeometry x="126" y="684" width="30" height="30" as="geometry" />
        </mxCell>
        <mxCell id="pfp9G8810t_1Ug5Y-fyW-28" value="&lt;font style=&quot;font-size: 11px;&quot;&gt;1&lt;/font&gt;" style="text;html=1;align=center;verticalAlign=middle;resizable=0;points=[];autosize=1;strokeColor=none;fillColor=none;" parent="1" vertex="1">
          <mxGeometry x="220" y="448" width="30" height="30" as="geometry" />
        </mxCell>
        <mxCell id="pfp9G8810t_1Ug5Y-fyW-29" value="&lt;font style=&quot;font-size: 11px;&quot;&gt;*&lt;/font&gt;" style="text;html=1;align=center;verticalAlign=middle;resizable=0;points=[];autosize=1;strokeColor=none;fillColor=none;" parent="1" vertex="1">
          <mxGeometry x="624" y="581" width="30" height="30" as="geometry" />
        </mxCell>
        <mxCell id="pfp9G8810t_1Ug5Y-fyW-30" value="&lt;font style=&quot;font-size: 11px;&quot;&gt;1&lt;/font&gt;" style="text;html=1;align=center;verticalAlign=middle;resizable=0;points=[];autosize=1;strokeColor=none;fillColor=none;" parent="1" vertex="1">
          <mxGeometry x="720" y="472" width="30" height="30" as="geometry" />
        </mxCell>
        <mxCell id="pfp9G8810t_1Ug5Y-fyW-32" value="&lt;font style=&quot;font-size: 11px;&quot;&gt;1...*&lt;/font&gt;" style="text;html=1;align=center;verticalAlign=middle;resizable=0;points=[];autosize=1;strokeColor=none;fillColor=none;" parent="1" vertex="1">
          <mxGeometry x="730" y="528" width="40" height="30" as="geometry" />
        </mxCell>
        <mxCell id="pfp9G8810t_1Ug5Y-fyW-33" value="&lt;font style=&quot;font-size: 11px;&quot;&gt;1&lt;/font&gt;" style="text;html=1;align=center;verticalAlign=middle;resizable=0;points=[];autosize=1;strokeColor=none;fillColor=none;" parent="1" vertex="1">
          <mxGeometry x="704" y="632" width="30" height="30" as="geometry" />
        </mxCell>
        <mxCell id="pfp9G8810t_1Ug5Y-fyW-34" value="&lt;font style=&quot;font-size: 11px;&quot;&gt;2...*&lt;/font&gt;" style="text;html=1;align=center;verticalAlign=middle;resizable=0;points=[];autosize=1;strokeColor=none;fillColor=none;" parent="1" vertex="1">
          <mxGeometry x="698" y="646" width="40" height="30" as="geometry" />
        </mxCell>
        <mxCell id="pfp9G8810t_1Ug5Y-fyW-35" value="&lt;font style=&quot;font-size: 11px;&quot;&gt;1&lt;/font&gt;" style="text;html=1;align=center;verticalAlign=middle;resizable=0;points=[];autosize=1;strokeColor=none;fillColor=none;" parent="1" vertex="1">
          <mxGeometry x="820" y="470" width="30" height="30" as="geometry" />
        </mxCell>
        <mxCell id="pfp9G8810t_1Ug5Y-fyW-37" value="&lt;font style=&quot;font-size: 11px;&quot;&gt;2...*&lt;/font&gt;" style="text;html=1;align=center;verticalAlign=middle;resizable=0;points=[];autosize=1;strokeColor=none;fillColor=none;" parent="1" vertex="1">
          <mxGeometry x="803" y="714" width="40" height="30" as="geometry" />
        </mxCell>
        <mxCell id="pfp9G8810t_1Ug5Y-fyW-38" value="&lt;font style=&quot;font-size: 11px;&quot;&gt;1&lt;/font&gt;" style="text;html=1;align=center;verticalAlign=middle;resizable=0;points=[];autosize=1;strokeColor=none;fillColor=none;" parent="1" vertex="1">
          <mxGeometry x="1090" y="505" width="30" height="30" as="geometry" />
        </mxCell>
        <mxCell id="pfp9G8810t_1Ug5Y-fyW-39" value="&lt;font style=&quot;font-size: 11px;&quot;&gt;1&lt;/font&gt;" style="text;html=1;align=center;verticalAlign=middle;resizable=0;points=[];autosize=1;strokeColor=none;fillColor=none;" parent="1" vertex="1">
          <mxGeometry x="1100" y="587.5" width="30" height="30" as="geometry" />
        </mxCell>
        <mxCell id="pfp9G8810t_1Ug5Y-fyW-40" value="&lt;font style=&quot;font-size: 11px;&quot;&gt;1&lt;/font&gt;" style="text;html=1;align=center;verticalAlign=middle;resizable=0;points=[];autosize=1;strokeColor=none;fillColor=none;" parent="1" vertex="1">
          <mxGeometry x="1090" y="468" width="30" height="30" as="geometry" />
        </mxCell>
        <mxCell id="pfp9G8810t_1Ug5Y-fyW-41" value="&lt;font style=&quot;font-size: 11px;&quot;&gt;1&lt;/font&gt;" style="text;html=1;align=center;verticalAlign=middle;resizable=0;points=[];autosize=1;strokeColor=none;fillColor=none;" parent="1" vertex="1">
          <mxGeometry x="1200" y="587.5" width="30" height="30" as="geometry" />
        </mxCell>
        <mxCell id="pfp9G8810t_1Ug5Y-fyW-42" value="&lt;font style=&quot;font-size: 11px;&quot;&gt;1&lt;/font&gt;" style="text;html=1;align=center;verticalAlign=middle;resizable=0;points=[];autosize=1;strokeColor=none;fillColor=none;" parent="1" vertex="1">
          <mxGeometry x="1320" y="517" width="30" height="30" as="geometry" />
        </mxCell>
        <mxCell id="pfp9G8810t_1Ug5Y-fyW-43" value="&lt;font style=&quot;font-size: 11px;&quot;&gt;1&lt;/font&gt;" style="text;html=1;align=center;verticalAlign=middle;resizable=0;points=[];autosize=1;strokeColor=none;fillColor=none;" parent="1" vertex="1">
          <mxGeometry x="1320" y="587.5" width="30" height="30" as="geometry" />
        </mxCell>
        <mxCell id="pfp9G8810t_1Ug5Y-fyW-44" value="&lt;font style=&quot;font-size: 11px;&quot;&gt;1&lt;/font&gt;" style="text;html=1;align=center;verticalAlign=middle;resizable=0;points=[];autosize=1;strokeColor=none;fillColor=none;" parent="1" vertex="1">
          <mxGeometry x="480" y="350" width="30" height="30" as="geometry" />
        </mxCell>
        <mxCell id="pfp9G8810t_1Ug5Y-fyW-45" value="&lt;font style=&quot;font-size: 11px;&quot;&gt;1&lt;/font&gt;" style="text;html=1;align=center;verticalAlign=middle;resizable=0;points=[];autosize=1;strokeColor=none;fillColor=none;" parent="1" vertex="1">
          <mxGeometry x="920" y="350" width="30" height="30" as="geometry" />
        </mxCell>
        <mxCell id="pfp9G8810t_1Ug5Y-fyW-46" value="&lt;font style=&quot;font-size: 11px;&quot;&gt;1&lt;/font&gt;" style="text;html=1;align=center;verticalAlign=middle;resizable=0;points=[];autosize=1;strokeColor=none;fillColor=none;" parent="1" vertex="1">
          <mxGeometry x="430" y="350" width="30" height="30" as="geometry" />
        </mxCell>
        <mxCell id="pfp9G8810t_1Ug5Y-fyW-47" value="&lt;font style=&quot;font-size: 11px;&quot;&gt;1&lt;/font&gt;" style="text;html=1;align=center;verticalAlign=middle;resizable=0;points=[];autosize=1;strokeColor=none;fillColor=none;" parent="1" vertex="1">
          <mxGeometry x="990" y="308" width="30" height="30" as="geometry" />
        </mxCell>
        <mxCell id="pfp9G8810t_1Ug5Y-fyW-48" value="&lt;font style=&quot;font-size: 11px;&quot;&gt;1&lt;/font&gt;" style="text;html=1;align=center;verticalAlign=middle;resizable=0;points=[];autosize=1;strokeColor=none;fillColor=none;" parent="1" vertex="1">
          <mxGeometry x="980" y="843" width="30" height="30" as="geometry" />
        </mxCell>
        <mxCell id="pfp9G8810t_1Ug5Y-fyW-49" value="&lt;font style=&quot;font-size: 11px;&quot;&gt;1&lt;/font&gt;" style="text;html=1;align=center;verticalAlign=middle;resizable=0;points=[];autosize=1;strokeColor=none;fillColor=none;" parent="1" vertex="1">
          <mxGeometry x="1083" y="843" width="30" height="30" as="geometry" />
        </mxCell>
        <mxCell id="pfp9G8810t_1Ug5Y-fyW-50" value="&lt;font style=&quot;font-size: 11px;&quot;&gt;1&lt;/font&gt;" style="text;html=1;align=center;verticalAlign=middle;resizable=0;points=[];autosize=1;strokeColor=none;fillColor=none;" parent="1" vertex="1">
          <mxGeometry x="1100" y="744" width="30" height="30" as="geometry" />
        </mxCell>
        <mxCell id="pfp9G8810t_1Ug5Y-fyW-51" value="&lt;font style=&quot;font-size: 11px;&quot;&gt;1&lt;/font&gt;" style="text;html=1;align=center;verticalAlign=middle;resizable=0;points=[];autosize=1;strokeColor=none;fillColor=none;" parent="1" vertex="1">
          <mxGeometry x="1147" y="805" width="30" height="30" as="geometry" />
        </mxCell>
        <mxCell id="pfp9G8810t_1Ug5Y-fyW-52" value="&lt;font style=&quot;font-size: 11px;&quot;&gt;1&lt;/font&gt;" style="text;html=1;align=center;verticalAlign=middle;resizable=0;points=[];autosize=1;strokeColor=none;fillColor=none;" parent="1" vertex="1">
          <mxGeometry x="1010" y="813" width="30" height="30" as="geometry" />
        </mxCell>
        <mxCell id="pfp9G8810t_1Ug5Y-fyW-53" value="&lt;font style=&quot;font-size: 11px;&quot;&gt;1&lt;/font&gt;" style="text;html=1;align=center;verticalAlign=middle;resizable=0;points=[];autosize=1;strokeColor=none;fillColor=none;" parent="1" vertex="1">
          <mxGeometry x="982" y="1070" width="30" height="30" as="geometry" />
        </mxCell>
        <mxCell id="pfp9G8810t_1Ug5Y-fyW-54" value="&lt;font style=&quot;font-size: 11px;&quot;&gt;1&lt;/font&gt;" style="text;html=1;align=center;verticalAlign=middle;resizable=0;points=[];autosize=1;strokeColor=none;fillColor=none;" parent="1" vertex="1">
          <mxGeometry x="723" y="1087" width="30" height="30" as="geometry" />
        </mxCell>
        <mxCell id="pfp9G8810t_1Ug5Y-fyW-55" value="&lt;font style=&quot;font-size: 11px;&quot;&gt;1...*&lt;/font&gt;" style="text;html=1;align=center;verticalAlign=middle;resizable=0;points=[];autosize=1;strokeColor=none;fillColor=none;" parent="1" vertex="1">
          <mxGeometry x="220" y="400" width="40" height="30" as="geometry" />
        </mxCell>
        <mxCell id="pfp9G8810t_1Ug5Y-fyW-56" value="&lt;font style=&quot;font-size: 11px;&quot;&gt;1&lt;/font&gt;" style="text;html=1;align=center;verticalAlign=middle;resizable=0;points=[];autosize=1;strokeColor=none;fillColor=none;" parent="1" vertex="1">
          <mxGeometry x="221" y="467" width="30" height="30" as="geometry" />
        </mxCell>
        <mxCell id="pfp9G8810t_1Ug5Y-fyW-57" value="&lt;font style=&quot;font-size: 11px;&quot;&gt;*&lt;/font&gt;" style="text;html=1;align=center;verticalAlign=middle;resizable=0;points=[];autosize=1;strokeColor=none;fillColor=none;" parent="1" vertex="1">
          <mxGeometry x="220" y="918" width="30" height="30" as="geometry" />
        </mxCell>
        <mxCell id="pfp9G8810t_1Ug5Y-fyW-58" value="&lt;font style=&quot;font-size: 11px;&quot;&gt;1&lt;/font&gt;" style="text;html=1;align=center;verticalAlign=middle;resizable=0;points=[];autosize=1;strokeColor=none;fillColor=none;" parent="1" vertex="1">
          <mxGeometry x="726" y="948" width="30" height="30" as="geometry" />
        </mxCell>
        <mxCell id="pfp9G8810t_1Ug5Y-fyW-59" value="&lt;font style=&quot;font-size: 11px;&quot;&gt;1...*&lt;/font&gt;" style="text;html=1;align=center;verticalAlign=middle;resizable=0;points=[];autosize=1;strokeColor=none;fillColor=none;" parent="1" vertex="1">
          <mxGeometry x="219" y="884" width="40" height="30" as="geometry" />
        </mxCell>
        <mxCell id="pfp9G8810t_1Ug5Y-fyW-60" value="&lt;font style=&quot;font-size: 11px;&quot;&gt;1&lt;/font&gt;" style="text;html=1;align=center;verticalAlign=middle;resizable=0;points=[];autosize=1;strokeColor=none;fillColor=none;" parent="1" vertex="1">
          <mxGeometry x="221" y="487" width="30" height="30" as="geometry" />
        </mxCell>
        <mxCell id="pfp9G8810t_1Ug5Y-fyW-61" value="&lt;font style=&quot;font-size: 11px;&quot;&gt;*&lt;/font&gt;" style="text;html=1;align=center;verticalAlign=middle;resizable=0;points=[];autosize=1;strokeColor=none;fillColor=none;" parent="1" vertex="1">
          <mxGeometry x="505" y="925" width="30" height="30" as="geometry" />
        </mxCell>
        <mxCell id="pfp9G8810t_1Ug5Y-fyW-62" value="&lt;font style=&quot;font-size: 11px;&quot;&gt;*&lt;/font&gt;" style="text;html=1;align=center;verticalAlign=middle;resizable=0;points=[];autosize=1;strokeColor=none;fillColor=none;" parent="1" vertex="1">
          <mxGeometry x="608" y="1008" width="30" height="30" as="geometry" />
        </mxCell>
        <mxCell id="pfp9G8810t_1Ug5Y-fyW-63" value="&lt;font style=&quot;font-size: 11px;&quot;&gt;1&lt;/font&gt;" style="text;html=1;align=center;verticalAlign=middle;resizable=0;points=[];autosize=1;strokeColor=none;fillColor=none;" parent="1" vertex="1">
          <mxGeometry x="1070" y="813" width="30" height="30" as="geometry" />
        </mxCell>
        <mxCell id="pfp9G8810t_1Ug5Y-fyW-64" value="&lt;font style=&quot;font-size: 11px;&quot;&gt;1&lt;/font&gt;" style="text;html=1;align=center;verticalAlign=middle;resizable=0;points=[];autosize=1;strokeColor=none;fillColor=none;" parent="1" vertex="1">
          <mxGeometry x="1360" y="758" width="30" height="30" as="geometry" />
        </mxCell>
        <mxCell id="pfp9G8810t_1Ug5Y-fyW-65" value="&lt;font style=&quot;font-size: 11px;&quot;&gt;1&lt;/font&gt;" style="text;html=1;align=center;verticalAlign=middle;resizable=0;points=[];autosize=1;strokeColor=none;fillColor=none;" parent="1" vertex="1">
          <mxGeometry x="475" y="843" width="30" height="30" as="geometry" />
        </mxCell>
        <mxCell id="pfp9G8810t_1Ug5Y-fyW-66" value="&lt;font style=&quot;font-size: 11px;&quot;&gt;1&lt;/font&gt;" style="text;html=1;align=center;verticalAlign=middle;resizable=0;points=[];autosize=1;strokeColor=none;fillColor=none;" parent="1" vertex="1">
          <mxGeometry x="520" y="841" width="30" height="30" as="geometry" />
        </mxCell>
        <mxCell id="pfp9G8810t_1Ug5Y-fyW-67" value="&lt;font style=&quot;font-size: 11px;&quot;&gt;1&lt;/font&gt;" style="text;html=1;align=center;verticalAlign=middle;resizable=0;points=[];autosize=1;strokeColor=none;fillColor=none;" parent="1" vertex="1">
          <mxGeometry x="721" y="837" width="30" height="30" as="geometry" />
        </mxCell>
        <mxCell id="pfp9G8810t_1Ug5Y-fyW-68" value="&lt;font style=&quot;font-size: 11px;&quot;&gt;1&lt;/font&gt;" style="text;html=1;align=center;verticalAlign=middle;resizable=0;points=[];autosize=1;strokeColor=none;fillColor=none;" parent="1" vertex="1">
          <mxGeometry x="850" y="770" width="30" height="30" as="geometry" />
        </mxCell>
        <mxCell id="pfp9G8810t_1Ug5Y-fyW-69" value="&lt;font style=&quot;font-size: 11px;&quot;&gt;1&lt;/font&gt;" style="text;html=1;align=center;verticalAlign=middle;resizable=0;points=[];autosize=1;strokeColor=none;fillColor=none;" parent="1" vertex="1">
          <mxGeometry x="565" y="765" width="30" height="30" as="geometry" />
        </mxCell>
        <mxCell id="pfp9G8810t_1Ug5Y-fyW-70" value="&lt;font style=&quot;font-size: 11px;&quot;&gt;1&lt;/font&gt;" style="text;html=1;align=center;verticalAlign=middle;resizable=0;points=[];autosize=1;strokeColor=none;fillColor=none;" parent="1" vertex="1">
          <mxGeometry x="435" y="500" width="30" height="30" as="geometry" />
        </mxCell>
        <mxCell id="pfp9G8810t_1Ug5Y-fyW-71" value="&lt;font style=&quot;font-size: 11px;&quot;&gt;1&lt;/font&gt;" style="text;html=1;align=center;verticalAlign=middle;resizable=0;points=[];autosize=1;strokeColor=none;fillColor=none;" parent="1" vertex="1">
          <mxGeometry x="441" y="595" width="30" height="30" as="geometry" />
        </mxCell>
        <mxCell id="pfp9G8810t_1Ug5Y-fyW-72" value="&lt;font style=&quot;font-size: 11px;&quot;&gt;1&lt;/font&gt;" style="text;html=1;align=center;verticalAlign=middle;resizable=0;points=[];autosize=1;strokeColor=none;fillColor=none;" parent="1" vertex="1">
          <mxGeometry x="560" y="475" width="30" height="30" as="geometry" />
        </mxCell>
        <mxCell id="pfp9G8810t_1Ug5Y-fyW-73" value="&lt;font style=&quot;font-size: 11px;&quot;&gt;1&lt;/font&gt;" style="text;html=1;align=center;verticalAlign=middle;resizable=0;points=[];autosize=1;strokeColor=none;fillColor=none;" parent="1" vertex="1">
          <mxGeometry x="620" y="472" width="30" height="30" as="geometry" />
        </mxCell>
        <mxCell id="pfp9G8810t_1Ug5Y-fyW-74" value="&lt;font style=&quot;font-size: 11px;&quot;&gt;1&lt;/font&gt;" style="text;html=1;align=center;verticalAlign=middle;resizable=0;points=[];autosize=1;strokeColor=none;fillColor=none;" parent="1" vertex="1">
          <mxGeometry x="765" y="1003" width="30" height="30" as="geometry" />
        </mxCell>
        <mxCell id="pfp9G8810t_1Ug5Y-fyW-75" value="&lt;font style=&quot;font-size: 11px;&quot;&gt;*&lt;/font&gt;" style="text;html=1;align=center;verticalAlign=middle;resizable=0;points=[];autosize=1;strokeColor=none;fillColor=none;" parent="1" vertex="1">
          <mxGeometry x="144" y="1027" width="30" height="30" as="geometry" />
        </mxCell>
        <mxCell id="pfp9G8810t_1Ug5Y-fyW-76" value="&lt;font style=&quot;font-size: 11px;&quot;&gt;1&lt;/font&gt;" style="text;html=1;align=center;verticalAlign=middle;resizable=0;points=[];autosize=1;strokeColor=none;fillColor=none;" parent="1" vertex="1">
          <mxGeometry x="-199" y="726" width="30" height="30" as="geometry" />
        </mxCell>
        <mxCell id="pfp9G8810t_1Ug5Y-fyW-77" value="&lt;font style=&quot;font-size: 11px;&quot;&gt;1&lt;/font&gt;" style="text;html=1;align=center;verticalAlign=middle;resizable=0;points=[];autosize=1;strokeColor=none;fillColor=none;" parent="1" vertex="1">
          <mxGeometry x="128" y="515" width="30" height="30" as="geometry" />
        </mxCell>
        <mxCell id="pfp9G8810t_1Ug5Y-fyW-78" value="&lt;font style=&quot;font-size: 11px;&quot;&gt;*&lt;/font&gt;" style="text;html=1;align=center;verticalAlign=middle;resizable=0;points=[];autosize=1;strokeColor=none;fillColor=none;" parent="1" vertex="1">
          <mxGeometry x="128" y="550" width="30" height="30" as="geometry" />
        </mxCell>
        <mxCell id="pfp9G8810t_1Ug5Y-fyW-79" value="&lt;font style=&quot;font-size: 11px;&quot;&gt;1&lt;/font&gt;" style="text;html=1;align=center;verticalAlign=middle;resizable=0;points=[];autosize=1;strokeColor=none;fillColor=none;" parent="1" vertex="1">
          <mxGeometry x="843" y="1003" width="30" height="30" as="geometry" />
        </mxCell>
        <mxCell id="pfp9G8810t_1Ug5Y-fyW-80" value="&lt;font style=&quot;font-size: 11px;&quot;&gt;1&lt;/font&gt;" style="text;html=1;align=center;verticalAlign=middle;resizable=0;points=[];autosize=1;strokeColor=none;fillColor=none;" parent="1" vertex="1">
          <mxGeometry x="843" y="1033" width="30" height="30" as="geometry" />
        </mxCell>
        <mxCell id="Px558n5ALCz9o6YhB33o-1" value="AmortLineItem" style="swimlane;fontStyle=1;align=center;verticalAlign=top;childLayout=stackLayout;horizontal=1;startSize=26;horizontalStack=0;resizeParent=1;resizeParentMax=0;resizeLast=0;collapsible=1;marginBottom=0;whiteSpace=wrap;html=1;" parent="1" vertex="1">
          <mxGeometry x="-140" y="918" width="160" height="170" as="geometry" />
        </mxCell>
        <mxCell id="Px558n5ALCz9o6YhB33o-2" value="- asOfDate: Date&lt;div&gt;&lt;span style=&quot;background-color: transparent; color: light-dark(rgb(0, 0, 0), rgb(255, 255, 255));&quot;&gt;- date: Date&lt;/span&gt;&lt;/div&gt;&lt;div&gt;&lt;span style=&quot;background-color: transparent; color: light-dark(rgb(0, 0, 0), rgb(255, 255, 255));&quot;&gt;- principal: Double&lt;/span&gt;&lt;br&gt;&lt;/div&gt;&lt;div&gt;- interest: Double&lt;/div&gt;&lt;div&gt;- fees: Double&lt;/div&gt;&lt;div&gt;- origPrinc: Double&lt;/div&gt;&lt;div&gt;- newPrinc: Double&lt;/div&gt;&lt;div&gt;- taxEscrowDue: Double&lt;/div&gt;&lt;div&gt;&lt;br&gt;&lt;/div&gt;&lt;div&gt;&lt;div&gt;&lt;br&gt;&lt;/div&gt;&lt;/div&gt;" style="text;strokeColor=none;fillColor=none;align=left;verticalAlign=top;spacingLeft=4;spacingRight=4;overflow=hidden;rotatable=0;points=[[0,0.5],[1,0.5]];portConstraint=eastwest;whiteSpace=wrap;html=1;fontSize=11;fontStyle=0" parent="Px558n5ALCz9o6YhB33o-1" vertex="1">
          <mxGeometry y="26" width="160" height="114" as="geometry" />
        </mxCell>
        <mxCell id="Px558n5ALCz9o6YhB33o-3" value="" style="line;strokeWidth=1;fillColor=none;align=left;verticalAlign=middle;spacingTop=-1;spacingLeft=3;spacingRight=3;rotatable=0;labelPosition=right;points=[];portConstraint=eastwest;strokeColor=inherit;fontStyle=0" parent="Px558n5ALCz9o6YhB33o-1" vertex="1">
          <mxGeometry y="140" width="160" height="30" as="geometry" />
        </mxCell>
        <mxCell id="Px558n5ALCz9o6YhB33o-5" value="" style="endArrow=diamondThin;html=1;rounded=0;strokeColor=default;align=center;verticalAlign=middle;fontFamily=Helvetica;fontSize=11;fontColor=default;labelBackgroundColor=default;exitX=0.5;exitY=0;exitDx=0;exitDy=0;entryX=0.5;entryY=1;entryDx=0;entryDy=0;endFill=1;startSize=6;endSize=10;fontStyle=0" parent="1" edge="1">
          <mxGeometry width="50" height="50" relative="1" as="geometry">
            <mxPoint x="-59" y="918" as="sourcePoint" />
            <mxPoint x="-59" y="876" as="targetPoint" />
          </mxGeometry>
        </mxCell>
        <mxCell id="Px558n5ALCz9o6YhB33o-6" value="Aggregates" style="edgeLabel;html=1;align=center;verticalAlign=middle;resizable=0;points=[];fontStyle=0" parent="Px558n5ALCz9o6YhB33o-5" vertex="1" connectable="0">
          <mxGeometry x="-0.3063" y="-1" relative="1" as="geometry">
            <mxPoint x="11" y="-2" as="offset" />
          </mxGeometry>
        </mxCell>
        <mxCell id="Px558n5ALCz9o6YhB33o-7" value="&lt;font style=&quot;font-size: 11px;&quot;&gt;1&lt;/font&gt;" style="text;html=1;align=center;verticalAlign=middle;resizable=0;points=[];autosize=1;strokeColor=none;fillColor=none;" parent="1" vertex="1">
          <mxGeometry x="-83" y="871" width="30" height="30" as="geometry" />
        </mxCell>
        <mxCell id="Px558n5ALCz9o6YhB33o-8" value="&lt;font style=&quot;font-size: 11px;&quot;&gt;*&lt;/font&gt;" style="text;html=1;align=center;verticalAlign=middle;resizable=0;points=[];autosize=1;strokeColor=none;fillColor=none;" parent="1" vertex="1">
          <mxGeometry x="-83" y="901" width="30" height="30" as="geometry" />
        </mxCell>
      </root>
    </mxGraphModel>
  </diagram>
</mxfile>
